<?xml version="1.0" encoding="UTF-8" standalone="no"?>
<svg width="18px" height="18px" viewBox="0 0 18 18" version="1.1" xmlns="http://www.w3.org/2000/svg" xmlns:xlink="http://www.w3.org/1999/xlink">
    <!-- Generator: sketchtool 3.8.3 (29802) - http://www.bohemiancoding.com/sketch -->
    <title>DF28A9CB-6C97-4907-B832-AEE1D72388B9</title>
    <desc>Created with sketchtool.</desc>
    <defs></defs>
    <g id="Email-integration-screens" stroke="none" stroke-width="1" fill="none" fill-rule="evenodd">
        <g id="10b.-Hello-Bar---Email-integrations---Redirect-URL-selected" transform="translate(-315.000000, -240.000000)" fill="#54D388">
            <g id="Group" transform="translate(75.000000, 10.000000)">
                <g id="Inner-text">
                    <g id="Choose-input-fields-...-input" transform="translate(12.000000, 193.000000)">
                        <g id="email-addresses-only" transform="translate(0.000000, 24.000000)">
                            <g id="check-mark" transform="translate(228.000000, 13.000000)">
                                <g id="Layer_1">
                                    <g id="Group">
                                        <path d="M12.6187059,5.78258824 L7.24976471,11.1513529 L5.25070588,9.15264706 C5.07829412,8.97988235 4.79911765,8.97988235 4.62688235,9.15264706 C4.45464706,9.32505882 4.45447059,9.60423529 4.62688235,9.77611765 L7.24976471,12.399 L13.2425294,6.40623529 C13.4149412,6.23347059 13.4149412,5.95429412 13.2425294,5.78241176 C13.0701176,5.61052941 12.7909412,5.60982353 12.6187059,5.78258824 L12.6187059,5.78258824 Z" id="Shape"></path>
                                        <path d="M8.93452941,0 C4.008,0 0,4.00817647 0,8.93452941 C0.000352941176,13.8612353 4.00852941,17.8690588 8.93488235,17.8690588 L8.93558824,17.4278824 L8.93558824,17.8690588 C13.8614118,17.8690588 17.8690588,13.8612353 17.8690588,8.93452941 C17.8690588,4.00817647 13.8610588,0 8.93452941,0 L8.93452941,0 Z M8.93558824,16.9870588 L8.93488235,16.9870588 C4.49505882,16.9870588 0.882705882,13.3745294 0.882352941,8.93488235 C0.882352941,4.49488235 4.49452941,0.882705882 8.93452941,0.882705882 C13.3745294,0.882705882 16.9867059,4.49488235 16.9867059,8.93488235 C16.9867059,13.3745294 13.3748824,16.9870588 8.93558824,16.9870588 L8.93558824,16.9870588 Z" id="Shape"></path>
                                    </g>
                                </g>
                            </g>
                        </g>
                    </g>
                </g>
            </g>
        </g>
    </g>
</svg>