<?xml version="1.0" encoding="UTF-8" standalone="no"?>
<svg width="31px" height="33px" viewBox="0 0 31 33" version="1.1" xmlns="http://www.w3.org/2000/svg" xmlns:xlink="http://www.w3.org/1999/xlink">
    <!-- Generator: sketchtool 3.7.2 (28276) - http://www.bohemiancoding.com/sketch  -->
    <title>60E41CC1-7963-4181-92DE-18CFE850BBB6</title>
    <desc>Created with sketchtool.</desc>
    <defs></defs>
    <g id="Targeting-Screens" stroke="none" stroke-width="1" fill="none" fill-rule="evenodd">
        <g id="1a.-Hello-Bar---Targeting---all-options---non-paid-users@2x" transform="translate(-93.000000, -237.000000)" fill="#C7C7C7">
            <g id="Group" transform="translate(75.000000, 10.000000)">
                <g id="Inner-text">
                    <g id="home-page-visitors" transform="translate(18.000000, 227.000000)">
                        <g id="house">
                            <g id="Layer_1">
                                <g id="XMLID_2_">
                                    <g id="Group">
                                        <path d="M30.9281617,15.6281955 C30.9548303,16.0489711 30.6349301,16.3900079 30.1621337,16.3617926 C29.7673633,16.3384844 29.340479,15.7999406 29.1158683,15.5772853 C27.5249681,14.0002968 26.0950699,12.4815789 24.5716766,10.9720617 C21.7173253,8.14194697 18.847505,5.09469727 15.9442715,2.21673922 C15.812475,2.0867036 15.5420758,1.75916106 15.4845309,1.76161456 C15.4158483,1.76406806 15.1268862,2.16644242 15.0507784,2.24188761 C13.9741317,3.30854769 12.8244711,4.46598734 11.8598204,5.50627226 C9.45778443,8.09655718 6.98397206,10.4212505 4.58441118,12.9710526 C3.76021956,13.8475663 2.72131737,14.8400079 1.85319361,15.7796992 C1.58836327,16.066759 1.19421158,16.5813811 0.832235529,16.6151167 C0.335988024,16.6611199 0.0111377246,16.3188564 0.0408383234,15.8557578 C0.0631137725,15.5073605 0.425708583,15.2209141 0.679401198,14.9700435 C0.951037924,14.7007717 1.18616766,14.4173922 1.41944112,14.1855362 C2.7701996,12.8465374 3.88954092,11.7191531 5.19760479,10.3139098 C5.41788423,10.0771468 5.85473054,9.77352592 5.91227545,9.47910566 C6.00199601,9.01478037 5.91227545,8.38116343 5.91227545,7.80888405 L5.91227545,4.41814404 C5.91227545,3.40914127 5.71612774,2.25047487 6.65231537,2.26764939 C7.4697006,2.2823704 7.34161677,3.17053819 7.34161677,4.01331619 L7.34161677,8.03705975 C7.37007984,8.11925208 7.43814371,8.01620499 7.44371257,8.01129798 C7.77041916,7.73589236 8.01978044,7.38994856 8.31183633,7.1004353 C10.3580838,5.071389 12.2539721,2.99020578 14.3101198,0.951345469 C14.658483,0.606628413 15.0192216,0.0533636723 15.4591617,0.0153343886 L15.5352695,0.0153343886 C15.5915768,0.0368025326 15.8440319,0.0926197072 15.9182834,0.141689751 C16.2097206,0.33306292 16.5611776,0.77776019 16.8631337,1.1034626 C17.1793214,1.44449941 17.5227345,1.77204195 17.8073653,2.06523546 C21.8942914,6.27053819 25.9966866,10.3053225 30.1114571,14.5400673 C30.4264072,14.8645429 30.9021737,15.2233676 30.9281617,15.6281955 L30.9281617,15.6281955 Z" id="Shape"></path>
                                        <path d="M27.4817166,30.0769311 C27.4817166,31.2129027 27.7521158,32.4856569 26.8183413,32.5819569 L19.0324531,32.5819569 C18.1012156,32.5666225 18.3691397,31.0680847 18.3691397,30.0769311 L18.3691397,23.6493688 C16.5307964,23.5904848 14.5823134,23.6413949 12.7018942,23.6242204 C12.6561058,25.4852018 12.676525,27.9994282 12.676525,30.1781381 C12.676525,31.1515651 12.9277425,32.569076 12.0125928,32.5819569 L4.22732335,32.5819569 C3.82327146,32.4868837 3.64383034,32.3145251 3.58937924,32.0507736 C3.46872056,31.4662268 3.56339122,30.7246557 3.56339122,30.0517827 L3.56339122,17.8045133 C3.56339122,17.118146 3.45882036,16.2667808 3.58937924,15.7797606 C3.65373054,15.5380906 4.02746307,15.2154551 4.25269261,14.9701049 C4.5051477,14.6953126 4.77554691,14.4775643 5.01872056,14.2365077 C8.07231337,11.208886 10.8647884,8.18801148 13.9270439,5.15241591 C14.2636507,4.81873961 15.0067844,3.79133558 15.5865649,3.81096359 C15.880477,3.82139098 16.2028523,4.16917491 16.4546886,4.41820538 C18.1995988,6.14853779 19.9735908,8.05920261 21.6362056,9.70672932 C22.65902,10.7212525 23.5475629,11.7057202 24.5716148,12.7435516 C25.2485409,13.4286921 26.1172216,14.2751504 26.7929721,14.9952533 C27.048521,15.2688188 27.3888403,15.52889 27.4562854,15.8306708 C27.5837505,16.3974298 27.4816547,17.2426613 27.4816547,17.9057202 C27.4817166,21.9717254 27.4817166,25.9942422 27.4817166,30.0769311 L27.4817166,30.0769311 Z M26.0523752,18.2092798 C26.0523752,17.6768698 26.1637525,16.7948358 26.0523752,16.3366442 C26.0115369,16.1673526 25.628523,15.8324495 25.4398623,15.6281955 C25.203495,15.3724179 24.9571657,15.1595766 24.7759301,14.9700435 C21.6907804,11.7479818 18.628525,8.72710724 15.5613194,5.58233083 C15.121998,5.95648991 14.6152315,6.49503364 14.1573473,6.94893154 C12.8202016,8.27382271 11.5591637,9.65023744 10.2263493,10.9720617 C8.7506008,12.4349624 7.11273653,14.100277 5.63141916,15.6533439 C5.42165868,15.8729323 5.03926347,16.1397507 4.99285629,16.3617926 C4.88828543,16.8678275 4.99285629,17.5762762 4.99285629,18.2092798 C4.99285629,22.5838742 4.99347505,26.8296597 4.99285629,31.139911 L11.2473074,31.139911 L11.2473074,24.6872002 C11.2473074,24.0388623 11.1043733,23.0206589 11.3240339,22.5870024 C11.5956707,22.0490107 12.6834551,22.2073229 13.5447725,22.2073229 L17.526509,22.2073229 C18.1322774,22.2073229 19.0851717,22.1140898 19.4409601,22.3085299 C19.9780459,22.6017234 19.7986048,23.8431955 19.7986048,24.6620518 L19.7986048,31.139911 L26.0524371,31.139911 C26.0523752,26.8616165 26.0523752,22.518243 26.0523752,18.2092798 L26.0523752,18.2092798 Z" id="Shape"></path>
                                    </g>
                                </g>
                            </g>
                        </g>
                    </g>
                </g>
            </g>
        </g>
    </g>
</svg>