<?xml version="1.0" encoding="UTF-8" standalone="no"?>
<svg width="16px" height="20px" viewBox="0 0 16 20" version="1.1" xmlns="http://www.w3.org/2000/svg" xmlns:xlink="http://www.w3.org/1999/xlink">
    <!-- Generator: sketchtool 3.8.3 (29802) - http://www.bohemiancoding.com/sketch -->
    <title>19E3726B-6491-4527-8BA5-98DBD870252A</title>
    <desc>Created with sketchtool.</desc>
    <defs></defs>
    <g id="Email-integration-screens" stroke="none" stroke-width="1" fill="none" fill-rule="evenodd">
        <g id="10b.-Hello-Bar---Email-integrations---Redirect-URL-selected" transform="translate(-103.000000, -385.000000)" fill="#C7C7C7">
            <g id="Group" transform="translate(75.000000, 10.000000)">
                <g id="Inner-text">
                    <g id="Set-us-your-contact-list-...-input" transform="translate(12.000000, 339.000000)">
                        <g id="Create-a-list-and-integration" transform="translate(0.000000, 20.000000)">
                            <g id="list" transform="translate(16.000000, 16.000000)">
                                <g id="Layer_1">
                                    <g id="Group">
                                        <path d="M0,0 L0,19.5639518 L11.4378795,19.5639518 L15.8176386,14.3780241 L15.8176386,0.000192771084 L0,0 L0,0 L0,0 Z M0.963855422,0.963855422 L14.8537831,0.963855422 L14.8537831,13.7195181 L10.7321446,13.7195181 L10.7321446,18.6000964 L0.963855422,18.6000964 L0.963855422,0.963855422 L0.963855422,0.963855422 L0.963855422,0.963855422 Z M14.2980241,14.6833735 L11.696,17.764241 L11.696,14.6833735 L14.2980241,14.6833735 L14.2980241,14.6833735 Z" id="Shape"></path>
                                        <path d="M3.49416867,5.2826988 L12.1779277,5.2826988 C12.4441446,5.2826988 12.6598554,5.06698795 12.6598554,4.80077108 C12.6598554,4.53455422 12.4441446,4.31884337 12.1779277,4.31884337 L3.49416867,4.31884337 C3.22795181,4.31884337 3.01224096,4.53455422 3.01224096,4.80077108 C3.01224096,5.06698795 3.22795181,5.2826988 3.49416867,5.2826988 L3.49416867,5.2826988 Z" id="Shape"></path>
                                        <path d="M12.1779277,8.89291566 C12.4441446,8.89291566 12.6598554,8.67720482 12.6598554,8.41098795 C12.6598554,8.14477108 12.4441446,7.92906024 12.1779277,7.92906024 L3.49416867,7.92906024 C3.22795181,7.92906024 3.01224096,8.14477108 3.01224096,8.41098795 C3.01224096,8.67720482 3.22795181,8.89291566 3.49416867,8.89291566 L12.1779277,8.89291566 L12.1779277,8.89291566 Z" id="Shape"></path>
                                    </g>
                                </g>
                            </g>
                        </g>
                    </g>
                </g>
            </g>
        </g>
    </g>
</svg>