<?xml version="1.0" encoding="UTF-8" standalone="no"?>
<svg width="19px" height="14px" viewBox="0 0 19 14" version="1.1" xmlns="http://www.w3.org/2000/svg" xmlns:xlink="http://www.w3.org/1999/xlink">
    <!-- Generator: sketchtool 3.8.3 (29802) - http://www.bohemiancoding.com/sketch -->
    <title>7BF6109A-C6E8-4C24-9021-B38371C7005B</title>
    <desc>Created with sketchtool.</desc>
    <defs></defs>
    <g id="Email-integration-screens" stroke="none" stroke-width="1" fill="none" fill-rule="evenodd">
        <g id="10b.-Hello-Bar---Email-integrations---Redirect-URL-selected" transform="translate(-101.000000, -242.000000)" fill="#4DD485">
            <g id="Group" transform="translate(75.000000, 10.000000)">
                <g id="Inner-text">
                    <g id="Choose-input-fields-...-input" transform="translate(12.000000, 193.000000)">
                        <g id="email-addresses-only" transform="translate(0.000000, 24.000000)">
                            <g id="mail" transform="translate(14.000000, 15.000000)">
                                <g id="Layer_1">
                                    <path d="M18.0279464,0 L0.933035714,0 C0.418678571,0 0,0.42380651 0,0.944846293 L0,12.6037342 C0,12.8523146 0.0960178571,13.0785624 0.25175,13.2472604 C0.2600625,13.258255 0.266678571,13.2707957 0.276178571,13.2814467 C0.310107143,13.320443 0.350482143,13.3494756 0.392892857,13.3723237 C0.545232143,13.4827848 0.7315,13.5480651 0.933205357,13.5480651 L18.0282857,13.5480651 C18.5424732,13.5480651 18.9613214,13.1242586 18.9613214,12.6032188 L18.9613214,0.944674503 C18.9609821,0.423462929 18.5423036,0 18.0279464,0 L18.0279464,0 Z M12.3233661,7.1548915 C12.148125,6.99787523 11.8805982,7.01471067 11.7252054,7.19216998 C11.5699821,7.36962929 11.5864375,7.64105787 11.7618482,7.79807414 L17.2218036,12.6898011 L1.577,12.6898011 L7.03729464,7.79807414 C7.21236607,7.64105787 7.22916071,7.36962929 7.0739375,7.19216998 C6.91854464,7.01436709 6.65084821,6.99787523 6.4754375,7.1548915 L0.848892857,12.1959042 L0.848892857,1.39579566 L9.24383929,7.1303255 C9.31559821,7.17928571 9.39821429,7.2041953 9.48066071,7.2041953 C9.56497321,7.2041953 9.64945536,7.17877034 9.72189286,7.12774864 L18.1129375,1.24925859 L18.1129375,12.3420976 L12.3233661,7.1548915 L12.3233661,7.1548915 Z M1.57954464,0.858951175 L17.1790536,0.858951175 L9.47777679,6.25402351 L1.57954464,0.858951175 L1.57954464,0.858951175 Z" id="Shape"></path>
                                </g>
                            </g>
                        </g>
                    </g>
                </g>
            </g>
        </g>
    </g>
</svg>