<?xml version="1.0" encoding="UTF-8" standalone="no"?>
<svg width="23px" height="18px" viewBox="0 0 23 18" version="1.1" xmlns="http://www.w3.org/2000/svg" xmlns:xlink="http://www.w3.org/1999/xlink">
    <!-- Generator: sketchtool 3.8.3 (29802) - http://www.bohemiancoding.com/sketch -->
    <title>6FE14138-5D19-4DBB-B12D-16C426DAB6AB</title>
    <desc>Created with sketchtool.</desc>
    <defs></defs>
    <g id="Email-integration-screens" stroke="none" stroke-width="1" fill="none" fill-rule="evenodd">
        <g id="10b.-Hello-Bar---Email-integrations---Redirect-URL-selected" transform="translate(-101.000000, -290.000000)">
            <g id="Group" transform="translate(75.000000, 10.000000)">
                <g id="Inner-text">
                    <g id="Choose-input-fields-...-input" transform="translate(12.000000, 193.000000)">
                        <g id="names-and-email-addresses" transform="translate(0.000000, 73.000000)">
                            <g id="mail-extra" transform="translate(14.000000, 14.000000)">
                                <g id="Layer_1">
                                    <path d="M18.2403731,0 L0.944029851,0 C0.42361194,0 0,0.423440299 0,0.944029851 L0,12.5928433 C0,12.841209 0.0971492537,13.0672612 0.254716418,13.2358134 C0.263126866,13.2467985 0.269820896,13.2593284 0.279432836,13.2699701 C0.313761194,13.3089328 0.35461194,13.3379403 0.397522388,13.3607687 C0.551656716,13.4711343 0.740119403,13.5363582 0.944201493,13.5363582 L18.2407164,13.5363582 C18.7609627,13.5363582 19.1847463,13.1129179 19.1847463,12.5923284 L19.1847463,0.943686567 C19.184403,0.423097015 18.760791,0 18.2403731,0 L18.2403731,0 Z M12.4685746,7.14853731 C12.2912687,6.99165672 12.0205896,7.00847761 11.8633657,7.18578358 C11.7063134,7.36308955 11.7229627,7.63428358 11.9004403,7.79116418 L17.4247313,12.6786642 L1.59558209,12.6786642 L7.12021642,7.79116418 C7.29735075,7.63428358 7.31434328,7.36308955 7.15729104,7.18578358 C7.00006716,7.00813433 6.72921642,6.99165672 6.55173881,7.14853731 L0.858895522,12.185194 L0.858895522,1.39458955 L9.35276119,7.12416418 C9.42536567,7.17308209 9.50895522,7.19797015 9.59237313,7.19797015 C9.6776791,7.19797015 9.76315672,7.17256716 9.83644776,7.12158955 L18.3263657,1.2481791 L18.3263657,12.3314328 L12.4685746,7.14853731 L12.4685746,7.14853731 Z M1.59815672,0.858208955 L17.3814776,0.858208955 L9.58945522,6.24844776 L1.59815672,0.858208955 L1.59815672,0.858208955 Z" id="Shape" fill="#666666"></path>
                                    <ellipse id="Oval" fill="#FFFFFF" cx="16.5876343" cy="10.9493731" rx="6.36499254" ry="6.36499254"></ellipse>
                                    <g id="Group" transform="translate(11.328358, 5.664179)" fill="#666666">
                                        <path d="M5.21825373,0.102813433 C2.36093284,0.102813433 0.0362164179,2.42752985 0.0362164179,5.2846791 C0.0362164179,8.14234328 2.36127612,10.4670597 5.21876866,10.4670597 C8.07591791,10.4670597 10.4001194,8.14234328 10.4001194,5.2846791 C10.4001194,2.42752985 8.07557463,0.102813433 5.21825373,0.102813433 L5.21825373,0.102813433 Z M5.21876866,9.24325373 L5.21842537,9.24325373 C3.03565672,9.24325373 1.26002239,7.46727612 1.26002239,5.2846791 C1.26002239,3.10259701 3.03565672,1.3266194 5.21825373,1.3266194 C7.40050746,1.3266194 9.17614179,3.10259701 9.17614179,5.2846791 C9.17614179,7.46727612 7.40085075,9.24325373 5.21876866,9.24325373 L5.21876866,9.24325373 Z" id="Shape"></path>
                                        <path d="M7.12313433,4.67329104 L5.83032836,4.67329104 L5.83032836,3.381 C5.83032836,3.04286567 5.55621642,2.76909701 5.21842537,2.76909701 C4.88029104,2.76909701 4.60635075,3.04303731 4.60635075,3.381 L4.60635075,4.67329104 L3.3140597,4.67329104 C2.97592537,4.67329104 2.70198507,4.94740299 2.70198507,5.28519403 C2.70198507,5.62298507 2.97609701,5.89709701 3.3140597,5.89709701 L4.60635075,5.89709701 L4.60635075,7.1895597 C4.60635075,7.52752239 4.88046269,7.80146269 5.21842537,7.80146269 C5.55638806,7.80146269 5.83032836,7.52735075 5.83032836,7.1895597 L5.83032836,5.89709701 L7.12313433,5.89709701 C7.46126866,5.89709701 7.73503731,5.62298507 7.73503731,5.28519403 C7.73503731,4.94740299 7.46126866,4.67329104 7.12313433,4.67329104 L7.12313433,4.67329104 Z" id="Shape"></path>
                                    </g>
                                </g>
                            </g>
                        </g>
                    </g>
                </g>
            </g>
        </g>
    </g>
</svg>