<?xml version="1.0" encoding="UTF-8" standalone="no"?>
<svg width="24px" height="35px" viewBox="0 0 24 35" version="1.1" xmlns="http://www.w3.org/2000/svg" xmlns:xlink="http://www.w3.org/1999/xlink">
    <!-- Generator: sketchtool 3.7.2 (28276) - http://www.bohemiancoding.com/sketch -->
    <title>3A1F73EC-26D9-48F8-BF37-C59777A5ED58</title>
    <desc>Created with sketchtool.</desc>
    <defs></defs>
    <g id="Targeting-Screens" stroke="none" stroke-width="1" fill="none" fill-rule="evenodd">
        <g id="1a.-Hello-Bar---Targeting---all-options---non-paid-users@2x" transform="translate(-96.000000, -156.000000)" fill="#C7C7C7">
            <g id="Group" transform="translate(75.000000, 10.000000)">
                <g id="Inner-text">
                    <g id="mobile-users" transform="translate(21.000000, 146.000000)">
                        <g id="phone">
                            <g id="Layer_1">
                                <g id="XMLID_2_">
                                    <g id="Group">
                                        <path d="M23.9640719,3.94636986 L23.9640719,31.0315753 C23.8538922,32.2152945 23.4102994,33.1133562 22.732982,33.7769178 C22.0761677,34.4203425 21.1434731,34.9472603 19.9468743,34.9659589 C17.4026826,35.0048425 14.6510659,34.9654795 11.9990898,34.9659589 C9.3485509,34.9659589 6.59405988,34.9923288 4.05082635,34.9659589 C2.83358084,34.9530137 1.92723353,34.4265753 1.26471856,33.7769178 C0.585916168,33.1109589 0.11645509,32.244589 0.0120239521,31.0531507 L0.0120239521,3.94632192 C0.300838323,1.64116438 1.60047904,0.348082192 3.85628743,0.0119863014 L20.1197605,0.0119863014 C22.3760479,0.348082192 23.6737725,1.64260274 23.9640719,3.94636986 L23.9640719,3.94636986 Z M22.3008383,5.3080137 C22.3597605,4.31554795 22.2979641,3.42376712 21.8907784,2.80047945 C21.5176048,2.22945205 20.9034731,1.76006849 20.0982036,1.67664384 C19.4605509,1.61047945 18.7558802,1.67664384 18.0895329,1.67664384 L5.93001198,1.67664384 C5.24881437,1.67664384 4.40617964,1.61335616 3.83468263,1.69821918 C2.23755689,1.93458904 1.4571976,3.26171233 1.67516168,5.3080137 C8.5508982,5.3080137 15.4256287,5.3080137 22.3008383,5.3080137 L22.3008383,5.3080137 Z M21.9122874,32.1338356 C22.4220359,31.3034726 22.3031856,30.1656849 22.3007904,28.8266233 L14.5906108,28.8266233 C14.1565988,29.8679932 13.3781557,30.7252534 11.998994,30.729089 C10.5872575,30.7329247 9.83372455,29.8507808 9.36378443,28.8266233 L1.69671856,28.8266233 C1.67132934,28.8304589 1.67324551,28.8611438 1.67516168,28.8918288 C1.65360479,30.2366918 1.58462275,31.4137466 2.08522156,32.1774658 C2.59683832,32.9565753 3.31731737,33.3229247 4.63372455,33.3229247 L19.4068982,33.3229247 C20.7065868,33.3229247 21.4304192,32.920137 21.9122874,32.1338356 L21.9122874,32.1338356 Z M22.3008383,27.1623973 L22.3008383,6.97267123 L1.69676647,6.97267123 C1.67137725,6.9760274 1.67329341,7.00671233 1.67520958,7.03739726 L1.67520958,27.1623973 L9.36383234,27.1623973 C9.52047904,26.9279452 9.62107784,26.6886986 9.77437126,26.4705479 C10.2299401,25.8227603 10.9207186,25.3083562 11.977485,25.3030342 C13.0361677,25.2982397 13.7705389,25.8361849 14.2016766,26.4489247 C14.3607186,26.6742671 14.4431138,26.9360479 14.6122156,27.1623493 C17.1750898,27.1623973 19.7379641,27.1623973 22.3008383,27.1623973 L22.3008383,27.1623973 Z M10.9403593,27.8758219 C10.7698204,29.4671233 13.2301796,29.3789041 13.0356886,27.8537671 C12.9643114,27.2937671 12.4388024,26.8771233 11.782994,26.9893151 C11.348503,27.0636301 10.9887425,27.4270548 10.9403593,27.8758219 L10.9403593,27.8758219 Z" id="Shape"></path>
                                    </g>
                                </g>
                            </g>
                        </g>
                    </g>
                </g>
            </g>
        </g>
    </g>
</svg>