<?xml version="1.0" encoding="UTF-8" standalone="no"?>
<svg width="42px" height="26px" viewBox="0 0 42 26" version="1.1" xmlns="http://www.w3.org/2000/svg" xmlns:xlink="http://www.w3.org/1999/xlink">
    <!-- Generator: sketchtool 3.7.2 (28276) - http://www.bohemiancoding.com/sketch -->
    <title>6100623B-6828-40CA-94A3-532766048593</title>
    <desc>Created with sketchtool.</desc>
    <defs></defs>
    <g id="Targeting-Screens" stroke="none" stroke-width="1" fill="none" fill-rule="evenodd">
        <g id="1a.-Hello-Bar---Targeting---all-options---non-paid-users@2x" transform="translate(-87.000000, -75.000000)" fill="#C7C7C7">
            <g id="Group" transform="translate(75.000000, 10.000000)">
                <g id="Inner-text">
                    <g id="everyone" transform="translate(12.000000, 65.000000)">
                        <g id="people">
                            <g id="Layer_1">
                                <g id="XMLID_2_">
                                    <g id="Group">
                                        <path d="M35.5412566,16.2324288 C33.3270272,16.8838552 31.489185,15.8166425 30.5388284,14.4935873 C30.0703983,13.8415741 29.7094355,12.9350595 29.7094355,11.7650739 C29.7094355,10.6689407 29.6308049,9.3993676 29.9502729,8.44766979 C30.2221267,7.6383117 30.6975146,6.93575032 31.4215359,6.36102644 C32.1123614,5.81279217 32.9070496,5.44386572 34.0432525,5.37110313 C35.3181068,5.28979009 36.5400656,5.83098282 37.2803496,6.52155682 C38.0037841,7.19628734 38.6534501,8.17531304 38.7516125,9.43759311 C38.8235368,10.3635558 38.8214411,11.3663886 38.7516125,12.326553 C38.608183,14.2986036 37.1650024,15.7548614 35.5412566,16.2324288 L35.5412566,16.2324288 Z M31.2609217,12.7815707 C31.5373022,13.7242151 32.2276247,14.3965146 33.0000147,14.7344247 C35.089089,15.648903 37.1853726,14.1190443 37.3337479,12.1929314 C37.3972056,11.3667239 37.4073488,10.2975832 37.3337479,9.54472512 C37.2564586,8.75657549 36.8797362,8.14521883 36.4508728,7.69866777 C35.9114404,7.13735635 35.0192604,6.6854403 33.8558972,6.81604412 C33.4580502,6.86072438 33.1875376,6.94664794 32.9464487,7.05688159 C32.0065706,7.48608029 31.3553957,8.33877738 31.1806984,9.27731422 C31.0754944,9.84424211 31.1271324,10.5438695 31.1271324,11.0696379 C31.1272162,11.6821682 31.123444,12.3117155 31.2609217,12.7815707 L31.2609217,12.7815707 Z" id="Shape"></path>
                                        <path d="M10.5819274,8.50131962 C10.0837383,7.50309735 8.98710213,6.63296405 7.39856399,6.81604412 C7.13685338,6.84597067 6.80942172,6.91320062 6.59591214,7.00331559 C5.70121728,7.38079248 4.79797198,8.38890645 4.69654025,9.62503222 C4.62084369,10.5480609 4.63366935,11.3314323 4.69654025,12.139533 C4.77701501,13.1747234 5.35039764,13.9810637 6.00727283,14.4401889 C8.19828187,15.9718918 10.644463,14.2802453 10.8761632,12.2465812 C10.9500155,11.5980888 10.9029043,10.8893242 10.9029043,10.240245 C10.9029881,9.55461681 10.8166454,8.97159398 10.5819274,8.50131962 L10.5819274,8.50131962 Z M8.01377673,16.4197002 C5.71949175,16.4917084 4.1005241,15.1065367 3.5194293,13.37021 C3.30700948,12.7350462 3.27859183,12.0557051 3.27859183,11.1230363 C3.27859183,10.3190432 3.23952804,9.4249351 3.41238111,8.7421571 C3.72975343,7.49077465 4.53668051,6.49305534 5.60598882,5.90634408 C6.16864148,5.59760603 6.8680174,5.41536424 7.61240889,5.37127078 C9.85933112,5.23882275 11.4878552,6.69969104 12.0799314,8.44783744 C12.3094521,9.12558577 12.3207689,9.81398024 12.3207689,10.6950112 C12.3207689,11.5755391 12.3630181,12.3816279 12.1869796,13.0759742 C11.740177,14.8387904 10.1512198,16.3528056 8.01377673,16.4197002 L8.01377673,16.4197002 Z" id="Shape"></path>
                                        <path d="M0.0418301072,18.8255601 L0.0418301072,17.4683031 C0.0487878204,17.3486807 0.0578412304,17.2307349 0.0685711978,17.1153877 C0.179307814,15.9266247 1.1339396,15.5794097 2.12838962,15.1892748 C2.53612838,15.0292474 2.9235808,14.7667823 3.30541675,14.7344247 C3.80226453,14.692427 4.08853671,15.1638749 4.05458642,15.5103355 C3.999763,16.0705572 3.41221346,16.2051847 2.87764313,16.4197002 C2.44710319,16.5925533 1.6654083,16.7177921 1.51309306,17.1421288 C1.42054709,17.4000672 1.48635197,17.8228111 1.48635197,18.2123592 C1.48635197,18.8552352 1.43152854,19.3084925 1.86089489,19.5230918 C2.20308026,19.6941007 2.96314755,19.6033989 3.49268821,19.6033989 L8.60241604,19.6033989 C8.85364816,18.1002814 9.63760641,17.3220234 11.2508738,16.7675859 C11.812772,16.574698 12.3403846,16.4687395 12.9897153,16.2859948 C13.4843835,16.1468405 14.3006993,15.7714593 14.7552979,15.8849623 C15.1082132,15.9729815 15.3506434,16.3689006 15.236889,16.794327 C15.1170151,17.2428061 14.5645056,17.3171614 14.0328693,17.4631896 C12.7178615,17.8246553 10.6457204,18.1353214 10.1539861,19.2020311 C9.96185261,19.6191586 10.0469379,20.4065537 10.0469379,21.1816262 C10.0469379,21.7934859 10.0060299,22.4398826 10.127245,22.8669017 C10.5194756,24.24696 11.8473091,24.0709214 13.6319206,24.0709214 L28.5594009,24.0709214 C29.3802434,24.0709214 30.3672328,24.1840891 30.9938461,24.0174393 C31.4928734,23.8844883 32.0779919,23.4210878 32.2243554,22.7599374 C32.3265416,22.2978782 32.2510965,21.676043 32.2510965,21.101403 C32.2510965,20.5205596 32.3426365,19.7724797 32.1975305,19.3358204 C31.8631411,18.3292991 30.4855139,18.0748815 29.3350602,17.7575092 C28.9326864,17.6464373 28.5443957,17.5321799 28.1045509,17.4097074 C27.662275,17.2863128 27.2363456,17.1499248 27.1681098,16.7675859 C27.0937544,16.3491172 27.3650214,15.9908369 27.676442,15.9117033 C28.1304537,15.7961885 28.9224594,16.1760965 29.4152835,16.3128197 C30.0362803,16.4854213 30.5564323,16.6076423 31.100559,16.7944108 C32.6018323,17.3091978 33.4822764,18.0570262 33.6687934,19.6034827 L38.5376838,19.6034827 C39.3462874,19.6034827 40.1585795,19.7289731 40.4103146,19.228856 C40.5317812,18.9878509 40.595155,17.573507 40.4638806,17.1690376 C40.3258161,16.7436111 39.619231,16.6270066 39.1798891,16.446609 C38.6731496,16.2389674 38.0786424,16.0736588 38.0026943,15.6174675 C37.9317759,15.1901969 38.199103,14.8610887 38.5377676,14.7880746 C38.8698098,14.7164017 39.1558305,14.8812073 39.4475515,15.0020871 C40.4874362,15.4333815 41.6395665,15.7333176 41.8816614,16.901459 C41.9552622,17.2554641 41.9084024,17.6760285 41.9084024,18.0519127 C41.9084024,18.4682019 41.9535857,18.8732582 41.9084024,19.228856 C41.7909596,20.1540642 41.0044027,20.8649245 40.1160788,20.9944386 C39.144849,21.1362754 38.0227292,21.0211797 36.9059743,21.0211797 L33.6956183,21.0211797 C33.711378,22.2106972 33.6739908,23.3568756 33.1607965,24.1244874 C32.6989888,24.8150614 31.8936545,25.3926355 30.9136228,25.4887022 C30.7822645,25.5015279 30.6489782,25.5100783 30.5143507,25.5154433 L29.6116922,25.5154433 C29.2244912,25.5055516 28.8349431,25.4887022 28.4523527,25.4887022 L13.8191921,25.4887022 C13.458816,25.4887022 13.0898058,25.5047133 12.7241486,25.5154433 L11.7410992,25.5154433 C11.6204708,25.5098268 11.5016868,25.5012764 11.3847469,25.4887022 C10.3800699,25.3814025 9.63735492,24.80408 9.16431425,24.0977464 C8.64877285,23.3277035 8.54968831,22.284801 8.62924095,21.0211797 L3.57307914,21.0211797 C3.02702439,21.0211797 2.44961802,21.0813681 1.91454473,21.0211797 C0.942225261,20.9120358 0.167152773,20.1107252 0.0687388535,19.1486327 C0.0578412304,19.0430096 0.0487878204,18.935207 0.0418301072,18.8255601 L0.0418301072,18.8255601 Z" id="Shape"></path>
                                        <path d="M26.6331203,5.39792804 C25.8762384,3.12778549 23.7943733,1.22438987 20.6672584,1.49221992 C18.683891,1.66213901 17.3340946,2.71166394 16.4939717,3.92666509 C16.0439837,4.57758851 15.7169712,5.29171813 15.5578659,6.25406208 C15.4018622,7.19502992 15.4775588,8.50819351 15.4775588,9.46441803 C15.4775588,10.5263495 15.4708526,11.5486304 15.7718785,12.433685 C16.5220541,14.6412081 18.7290742,16.5807336 21.7374888,16.285911 C24.4413568,16.0210149 26.3984861,14.1179546 26.8472167,11.5778025 C27.007747,10.6679348 26.9272723,9.45913687 26.9272723,8.36744652 C26.9271885,7.25287115 26.9547678,6.3632898 26.6331203,5.39792804 L26.6331203,5.39792804 Z M21.1755906,17.7306843 C18.7564021,17.7306843 16.9036385,16.6080615 15.7451374,15.215932 C15.1481991,14.4988684 14.6454834,13.6237055 14.3538462,12.6476976 C14.0467009,11.6189619 14.0595266,10.334719 14.0595266,8.95600199 C14.0595266,7.55398086 14.0467009,6.28717409 14.3271051,5.26430642 C14.6219277,4.18980078 15.0615211,3.42009327 15.6915714,2.64258978 C16.8608025,1.1989062 18.5171574,0.1912952 21.0418013,0.0208731397 L21.3628621,0.0208731397 C23.8704052,0.172350101 25.5620516,1.21525263 26.7400846,2.6694147 C27.3033241,3.36476688 27.8258232,4.2533423 28.1042994,5.26439025 C28.3847036,6.28264739 28.3451369,7.60838515 28.3451369,9.009568 C28.3451369,10.3654838 28.3541903,11.6604567 28.0508172,12.6745225 C27.7602698,13.6455007 27.2390281,14.535585 26.6330365,15.2427569 C25.4358906,16.6390778 23.6432316,17.7306843 21.1755906,17.7306843 L21.1755906,17.7306843 Z" id="Shape"></path>
                                    </g>
                                </g>
                            </g>
                        </g>
                    </g>
                </g>
            </g>
        </g>
    </g>
</svg>