<?xml version="1.0" encoding="UTF-8" standalone="no"?>
<svg width="31px" height="35px" viewBox="0 0 31 35" version="1.1" xmlns="http://www.w3.org/2000/svg" xmlns:xlink="http://www.w3.org/1999/xlink">
    <!-- Generator: sketchtool 3.7.2 (28276) - http://www.bohemiancoding.com/sketch -->
    <title>918A339B-EEDB-4ED4-9C42-8DCA4CBB3ECD</title>
    <desc>Created with sketchtool.</desc>
    <defs></defs>
    <g id="Targeting-Screens" stroke="none" stroke-width="1" fill="none" fill-rule="evenodd">
        <g id="1a.-Hello-Bar---Targeting---all-options---non-paid-users@2x" transform="translate(-92.000000, -428.000000)" fill="#C7C7C7">
            <g id="Group" transform="translate(75.000000, 10.000000)">
                <g id="Inner-text">
                    <g id="show-to-a-saved-segment" transform="translate(17.000000, 413.000000)">
                        <g id="saved-segment" transform="translate(0.000000, 5.000000)">
                            <g id="Layer_1">
                                <g id="Group">
                                    <path d="M12.299684,28.770614 L1.838114,28.770614 L1.838114,22.8414912 C1.838114,18.837 4.972338,15.3234298 9.6379,14.1003947 C9.989936,14.0078596 10.253622,13.7190175 10.310724,13.3639211 C10.367144,13.0074123 10.207618,12.6516404 9.901958,12.4560088 C8.227214,11.3829825 7.227526,9.56869298 7.227526,7.602 C7.227526,4.41435965 9.845166,1.82153509 13.0634,1.82153509 C16.282068,1.82153509 18.90039,4.41435965 18.90039,7.602 C18.90039,9.56869298 17.90033,11.3830439 16.225958,12.4560088 C15.920236,12.6517018 15.759346,13.0074123 15.81713,13.3639211 C15.874294,13.719693 16.13798,14.0085965 16.489644,14.1003947 C18.62449,14.6603947 20.491372,15.7234123 21.88879,17.1748684 C22.2394,17.5385 22.82096,17.5512719 23.188744,17.2047719 C23.55628,16.8582105 23.569858,16.2811404 23.219248,15.9175702 C21.959098,14.6090614 20.381136,13.5730614 18.593242,12.8715263 C19.959412,11.4712807 20.740302,9.59632456 20.740302,7.6019386 C20.740302,3.41041228 17.296822,0 13.064082,0 C8.831776,0 5.388978,3.41041228 5.388978,7.602 C5.388978,9.59571053 6.168876,11.4698684 7.53393,12.870114 C2.964592,14.6539474 0,18.4976228 0,22.8422281 L0,29.6827632 C0,30.1858421 0.411618,30.5936228 0.919584,30.5936228 L12.3008,30.5936228 C12.809448,30.5936228 13.220446,30.1858421 13.220446,29.6827632 C13.21933,29.1790702 12.808022,28.770614 12.299684,28.770614 L12.299684,28.770614 Z" id="Shape"></path>
                                    <path d="M25.840856,24.3314474 L21.831254,28.3017982 L20.58586,27.068693 C20.226632,26.7122456 19.6447,26.7122456 19.285472,27.068693 C18.926554,27.4245263 18.926244,28.0007982 19.285472,28.3558947 L21.831254,30.8774912 L27.141926,25.6185263 C27.501154,25.2620789 27.501154,24.685807 27.141926,24.3307105 C26.782078,23.975 26.200084,23.975 25.840856,24.3314474 L25.840856,24.3314474 Z" id="Shape"></path>
                                    <path d="M23.213544,19.5706491 C18.919424,19.5706491 15.427088,23.0300614 15.427088,27.282193 C15.427088,31.5351228 18.919796,34.9944737 23.21466,34.9944737 C27.507292,34.9944737 31,31.5351228 31,27.282193 C31,23.0307368 27.50692,19.5706491 23.213544,19.5706491 L23.213544,19.5706491 Z M23.21466,33.1729386 L23.213916,33.1729386 C19.934178,33.1729386 17.266256,30.5303158 17.266256,27.2821316 C17.266256,24.0346842 19.934178,21.3920614 23.213544,21.3920614 C26.492166,21.3920614 29.16077,24.0346842 29.16077,27.2821316 C29.16077,30.5303158 26.493282,33.1729386 23.21466,33.1729386 L23.21466,33.1729386 Z" id="Shape"></path>
                                </g>
                            </g>
                        </g>
                    </g>
                </g>
            </g>
        </g>
    </g>
</svg>