<?xml version="1.0" encoding="UTF-8" standalone="no"?>
<svg width="31px" height="31px" viewBox="0 0 31 31" version="1.1" xmlns="http://www.w3.org/2000/svg" xmlns:xlink="http://www.w3.org/1999/xlink">
    <!-- Generator: sketchtool 3.7.2 (28276) - http://www.bohemiancoding.com/sketch -->
    <title>A643C46B-3D36-4F12-B0FA-AD9A579C0B37</title>
    <desc>Created with sketchtool.</desc>
    <defs></defs>
    <g id="Targeting-Screens" stroke="none" stroke-width="1" fill="none" fill-rule="evenodd">
        <g id="1a.-Hello-Bar---Targeting---all-options---non-paid-users@2x" transform="translate(-93.000000, -318.000000)" fill="#C7C7C7">
            <g id="Group" transform="translate(75.000000, 10.000000)">
                <g id="Inner-text">
                    <g id="custom" transform="translate(18.000000, 308.000000)">
                        <g id="settings">
                            <g id="Layer_1">
                                <g id="XMLID_2_">
                                    <g id="Group">
                                        <path d="M30.9535928,3.52232794 L30.9535928,27.4544534 C30.6708802,29.5058502 29.5149701,30.6718644 27.4959481,30.9617834 L3.47311377,30.9617834 C1.45409182,30.6718644 0.298862275,29.5052854 0.0154690619,27.4544534 L0.0154690619,3.52232794 C0.285868263,1.48975709 1.42686627,0.340121457 3.38215569,0.0156882591 L27.5869062,0.0156882591 C29.5421956,0.340121457 30.6831317,1.48975709 30.9535928,3.52232794 L30.9535928,3.52232794 Z M29.4976447,28.1008097 C29.8262076,27.2493138 29.679499,25.9810749 29.679499,24.6864798 L29.679499,4.90672267 C29.679499,4.31684413 29.7426747,3.67739069 29.6189222,3.15340283 C29.4073054,2.25603441 28.6957285,1.57830162 27.7991417,1.36933401 C26.982994,1.17919231 25.8457086,1.30783603 24.8266068,1.30783603 L6.47596806,1.30783603 C5.46738523,1.30783603 4.26698603,1.22437449 3.38215569,1.33858502 C2.38347305,1.46722874 1.62363273,2.16943522 1.38045908,3.09190486 C1.14842315,3.97232996 1.289501,5.0912166 1.289501,6.04506275 L1.289501,24.3789899 C1.289501,25.3886862 1.19606786,26.4498401 1.289501,27.4545162 C1.38726547,28.5094575 2.10441118,29.3132611 3.07896208,29.5774514 C4.00401198,29.827836 5.36528942,29.6696984 6.50628743,29.6696984 L24.0073653,29.6696984 C25.1941517,29.6696984 26.4205389,29.7858543 27.5262675,29.6696984 C28.5032934,29.5667206 29.1820758,28.9172895 29.4976447,28.1008097 L29.4976447,28.1008097 Z" id="Shape"></path>
                                        <path d="M26.6160679,8.84441296 C26.9898004,9.92564777 26.4793214,11.1323887 25.5542715,11.2742105 C25.0945309,11.3451215 24.4980439,11.2742105 23.825511,11.2742105 C23.1758104,11.2742105 22.4196208,11.3306883 22.0360499,11.2434615 C20.5559701,10.9083603 20.6531158,8.36309717 21.9450918,7.98281377 C22.3163493,7.87362348 22.6158303,7.94955466 23.158485,7.92131579 C23.40599,6.92730769 22.7284451,4.49939271 23.7041717,4.35317814 C25.0332735,4.15299595 24.2512196,6.91538462 24.4628363,7.92131579 C25.5258084,7.81651822 26.3611377,8.10580972 26.6160679,8.84441296 L26.6160679,8.84441296 Z M25.4026747,9.95137652 C25.4441317,9.7794332 25.4763074,9.36965587 25.3724172,9.2441498 C24.4318982,9.17261134 23.3607585,9.23348178 22.3695629,9.21340081 C22.3342934,9.22846154 22.3008802,9.24603239 22.2786048,9.27489879 C22.22601,9.44182186 22.2315788,9.81394737 22.2786048,9.98212551 C23.2419561,10.013502 24.49,10.0731174 25.4026747,9.95137652 L25.4026747,9.95137652 Z" id="Shape"></path>
                                        <path d="M25.3117166,22.8408502 C26.3957884,23.9119818 25.9713174,25.6565789 24.7962874,26.2552429 C23.3867465,26.9725101 21.7439321,25.9401599 21.7327944,24.3789271 C21.7253693,23.302085 22.4066267,22.6839676 23.1887425,22.3174899 L23.1887425,15.3042105 C23.1887425,14.3076923 22.9282435,12.6660729 23.8557066,12.7200405 C24.7553872,12.7721255 24.4627745,14.3817409 24.4627745,15.3657085 L24.4627745,22.2867409 C24.7641118,22.5151619 25.071018,22.6024514 25.3117166,22.8408502 L25.3117166,22.8408502 Z M23.8557685,25.2091498 C24.9962096,25.1846761 24.7956687,23.4841316 23.7951916,23.5480769 C22.6980639,23.6177328 22.830479,25.2311134 23.8557685,25.2091498 L23.8557685,25.2091498 Z" id="Shape"></path>
                                        <path d="M18.2448303,14.0121255 C18.6532136,14.9873077 18.1662475,16.1833806 17.4559082,16.4419231 C16.963992,16.6213968 16.1230938,16.5347976 15.4845309,16.5347976 C14.1653293,16.5347976 13.1035329,16.6126113 12.7242315,15.6731984 C12.361018,14.7726923 12.6685429,13.6105061 13.4828343,13.2735223 C13.8862675,13.1065992 14.3249701,13.2101417 14.9084631,13.1812753 L14.9084631,6.84447368 C14.9084631,5.94020243 14.6745709,4.46550607 15.4238922,4.35317814 C16.4825948,4.19378543 16.1818762,5.80716599 16.1818762,6.78297571 L16.1818762,13.1812753 C17.1669461,13.0664372 17.9527745,13.3149393 18.2448303,14.0121255 L18.2448303,14.0121255 Z M17.0314371,15.2119636 C17.1304391,15.0588462 17.1162076,14.6296154 17.0314371,14.4733603 L13.9679441,14.4733603 C13.9295808,14.4859109 13.9060679,14.5128947 13.9073054,14.5656073 C13.924012,14.7745749 13.8714172,15.0531984 13.9376248,15.2119636 C14.8985629,15.2627935 16.070499,15.2627935 17.0314371,15.2119636 L17.0314371,15.2119636 Z" id="Shape"></path>
                                        <path d="M17.6681437,24.0093745 C17.8605788,25.4721478 16.6657485,26.6632004 15.241976,26.4705486 C14.3088822,26.344415 13.3627944,25.445164 13.5131537,24.0708725 C13.6072056,23.2130385 14.2074052,22.6614393 14.9084631,22.3483016 L14.9084631,20.4412368 C14.9084631,19.4742126 14.7011776,18.2925729 15.3935729,18.1651842 C16.4176248,17.9762976 16.1818762,19.2809332 16.1818762,20.3489899 L16.1818762,22.3176154 C16.9126347,22.5848178 17.5610978,23.1928947 17.6681437,24.0093745 L17.6681437,24.0093745 Z M14.7568663,24.3789271 C14.7735729,25.4087045 16.4491816,25.4965587 16.4250499,24.3475506 C16.4139122,23.8216802 16.0296607,23.5286235 15.575489,23.5480769 C15.0186028,23.5712955 14.7488224,23.9296154 14.7568663,24.3789271 L14.7568663,24.3789271 Z" id="Shape"></path>
                                        <path d="M9.93361277,11.7354453 C10.2986826,12.9120648 9.72075848,14.0165182 8.78147705,14.1351215 C8.30626747,14.1953644 7.62872255,14.1351215 6.96107784,14.1351215 C6.25630739,14.1351215 5.50822355,14.1991296 5.14129741,14.0428745 C4.33381238,13.6989879 4.0597006,12.6597976 4.32267465,11.7661943 C4.5658483,10.9391093 5.43149701,10.6592308 6.59724551,10.7822267 C6.65169661,9.53469636 6.62756487,7.69979757 6.62756487,6.22949393 C6.62756487,5.39864372 6.46111776,4.45546559 7.14361277,4.35317814 C8.07856287,4.21261134 7.90159681,5.28192308 7.90159681,6.16799595 L7.90159681,10.7822267 C9.00051896,10.6868421 9.70776447,11.0068826 9.93361277,11.7354453 L9.93361277,11.7354453 Z M8.69051896,12.8122874 C8.74001996,12.6415992 8.74001996,12.275749 8.69051896,12.1050607 C7.72958084,12.0335223 6.63808383,12.0943927 5.62702595,12.0743117 C5.46862275,12.1715789 5.53668663,12.6227733 5.56638723,12.8122874 C6.53722555,12.8637449 7.71906188,12.8637449 8.69051896,12.8122874 L8.69051896,12.8122874 Z" id="Shape"></path>
                                        <path d="M8.50798403,22.7172267 C10.0047705,23.9773077 9.14592814,26.7033623 6.90043912,26.4705486 C5.92031936,26.3688887 5.03734531,25.5072267 5.08065868,24.2860526 C5.11902196,23.2136032 5.77367265,22.6331377 6.62756487,22.3175526 L6.62756487,17.5495769 C6.62756487,16.7256296 6.43760479,15.6776538 7.11329341,15.5502652 C8.10516966,15.3626336 7.90159681,16.5662368 7.90159681,17.45733 L7.90159681,22.3175526 C8.14105788,22.5396984 8.33411178,22.5710749 8.50798403,22.7172267 L8.50798403,22.7172267 Z M7.99255489,24.5634838 C8.12249501,23.8763381 7.62253493,23.5205283 7.14361277,23.5480769 C6.53784431,23.5832814 6.19566866,24.0589494 6.38500998,24.655668 C6.62694611,25.4174899 7.84467066,25.3472065 7.99255489,24.5634838 L7.99255489,24.5634838 Z" id="Shape"></path>
                                    </g>
                                </g>
                            </g>
                        </g>
                    </g>
                </g>
            </g>
        </g>
    </g>
</svg>