<?xml version="1.0" standalone="no"?>
<!DOCTYPE svg PUBLIC "-//W3C//DTD SVG 20010904//EN"
 "http://www.w3.org/TR/2001/REC-SVG-20010904/DTD/svg10.dtd">
<svg version="1.0" xmlns="http://www.w3.org/2000/svg"
 width="300.000000pt" height="300.000000pt" viewBox="0 0 300.000000 300.000000"
 preserveAspectRatio="xMidYMid meet">
<metadata>
Created by potrace 1.11, written by Peter Selinger 2001-2013
</metadata>
<g transform="translate(0.000000,300.000000) scale(0.100000,-0.100000)"
fill="#000000" stroke="none">
<path d="M0 1500 l0 -1500 1500 0 1500 0 0 1500 0 1500 -1500 0 -1500 0 0
-1500z m1358 743 l-3 -118 -182 -3 -183 -2 0 -175 0 -175 500 0 500 0 0 175 0
175 -185 0 -185 0 0 120 0 120 485 0 485 0 0 -120 0 -120 -180 0 -180 0 0
-455 0 -455 180 0 180 0 0 -120 0 -120 -485 0 -485 0 0 120 0 120 185 0 185 0
0 165 0 165 -497 -2 -498 -3 -3 -162 -2 -163 182 -2 183 -3 3 -117 3 -118
-491 0 -490 0 0 120 0 120 190 0 190 0 0 455 0 455 -190 0 -190 0 0 120 0 120
490 0 491 0 -3 -117z m1242 -1603 l0 -70 -1110 0 -1110 0 0 70 0 70 1110 0
1110 0 0 -70z"/>
</g>
</svg>
