<?xml version="1.0" encoding="UTF-8" standalone="no"?>
<svg width="13px" height="15px" viewBox="0 0 13 15" version="1.1" xmlns="http://www.w3.org/2000/svg" xmlns:xlink="http://www.w3.org/1999/xlink">
    <!-- Generator: sketchtool 3.6.1 (26313) - http://www.bohemiancoding.com/sketch -->
    <title>delete</title>
    <desc>Created with sketchtool.</desc>
    <defs></defs>
    <g id="Welcome" stroke="none" stroke-width="1" fill="none" fill-rule="evenodd">
        <g id="Hello-Bar---Design---Image---Uploaded-State" transform="translate(-323.000000, -240.000000)" fill="#E8562A">
            <g id="Inner-text" transform="translate(75.000000, 10.000000)">
                <g id="upload-an-image" transform="translate(11.000000, 201.000000)">
                    <g id="helipad" transform="translate(0.000000, 21.000000)">
                        <g id="delete" transform="translate(237.000000, 8.000000)">
                            <g id="Layer_1">
                                <g id="Group">
                                    <path d="M12.5619982,3.98854167 L11.9813738,3.14645833 C11.8796789,2.99958333 11.6480285,2.87916667 11.4660482,2.87916667 L10.1163961,2.87916667 L10.1163961,1.735 C10.1163961,1.5575 10.0110616,1.31041667 9.88217663,1.185 L8.89776985,0.227708333 C8.76931311,0.102291667 8.51475468,0 8.3329884,0 L4.25855486,0 C4.07657449,0 3.82244425,0.102291667 3.69377342,0.227916667 L2.78130241,1.115625 C2.65263158,1.24104167 2.54729706,1.48833333 2.54729706,1.66520833 L2.54729706,2.87916667 L1.14026762,2.87916667 C0.958287244,2.87916667 0.726208742,2.99958333 0.624727921,3.14645833 L0.0477430865,3.98208333 C-0.0539518287,4.12895833 0.0119892953,4.249375 0.19396967,4.24958333 L1.16831401,4.25 L1.16831401,14.6635417 C1.16831401,14.8404167 1.31732382,14.9854167 1.49930419,14.9854167 L11.1785192,14.9854167 C11.3607136,14.9854167 11.5095094,14.8404167 11.5095094,14.6635417 L11.5095094,4.25520833 L12.4151293,4.255625 C12.5973238,4.25583333 12.6632649,4.13541667 12.5619982,3.98854167 L12.5619982,3.98854167 Z M3.92563782,2.80854167 L3.92563782,2.22104167 C3.92563782,2.04416667 4.03097235,1.796875 4.15964318,1.67145833 L4.2649777,1.56916667 C4.39364853,1.44375 4.64799286,1.34145833 4.82997324,1.34145833 L7.76178412,1.34145833 C7.9437645,1.34145833 8.19789474,1.44375 8.32677966,1.56916667 L8.50340767,1.74104167 C8.6320785,1.86645833 8.73741302,2.11354167 8.73741302,2.29104167 L8.73741302,2.80854167 C8.73741302,2.83270833 8.73398751,2.85625 8.72884924,2.87895833 L3.9344157,2.87895833 C3.92927743,2.85645833 3.92563782,2.83291667 3.92563782,2.80854167 L3.92563782,2.80854167 Z M10.1307404,4.57354167 L10.1307404,13.3216667 C10.1307404,13.4985417 9.98194469,13.6435417 9.79975022,13.6435417 L2.87807315,13.6435417 C2.69609277,13.6435417 2.54729706,13.4985417 2.54729706,13.3216667 L2.54729706,4.57354167 C2.54729706,4.39645833 2.69609277,4.25166667 2.87807315,4.25166667 L4.55871543,4.25166667 L9.82651204,4.25416667 C9.99586084,4.26770833 10.1307404,4.40541667 10.1307404,4.57354167 L10.1307404,4.57354167 Z" id="Shape"></path>
                                    <path d="M4.2178769,5.16020833 L3.81687779,5.16020833 C3.63489741,5.16020833 3.48610169,5.30520833 3.48610169,5.48208333 L3.48610169,12.44125 C3.48610169,12.6183333 3.63489741,12.763125 3.81687779,12.763125 L4.2178769,12.763125 C4.39985727,12.763125 4.54886708,12.6183333 4.54886708,12.44125 L4.54886708,5.481875 C4.54886708,5.30520833 4.39985727,5.16020833 4.2178769,5.16020833 L4.2178769,5.16020833 Z" id="Shape"></path>
                                    <path d="M6.11496878,12.763125 L6.51596789,12.763125 C6.69816236,12.763125 6.84695807,12.6183333 6.84695807,12.44125 L6.84695807,5.481875 C6.84695807,5.305 6.69816236,5.16 6.51596789,5.16 L6.11496878,5.16 C5.9329884,5.16 5.78397859,5.305 5.78397859,5.481875 L5.78397859,12.4410417 C5.78397859,12.618125 5.93277431,12.763125 6.11496878,12.763125 L6.11496878,12.763125 Z" id="Shape"></path>
                                    <path d="M8.41284567,12.763125 L8.81384478,12.763125 C8.99603925,12.763125 9.14483497,12.6183333 9.14483497,12.44125 L9.14483497,5.481875 C9.14483497,5.305 8.99603925,5.16 8.81384478,5.16 L8.41284567,5.16 C8.2308653,5.16 8.08206958,5.305 8.08206958,5.481875 L8.08206958,12.4410417 C8.08206958,12.618125 8.2308653,12.763125 8.41284567,12.763125 L8.41284567,12.763125 Z" id="Shape"></path>
                                </g>
                            </g>
                        </g>
                    </g>
                </g>
            </g>
        </g>
    </g>
</svg>