<?xml version="1.0" encoding="utf-8"?>
<!-- Generator: Adobe Illustrator 14.0.0, SVG Export Plug-In . SVG Version: 6.00 Build 43363)  -->
<!DOCTYPE svg PUBLIC "-//W3C//DTD SVG 1.1//EN" "http://www.w3.org/Graphics/SVG/1.1/DTD/svg11.dtd">
<svg version="1.1" id="Layer_1" xmlns="http://www.w3.org/2000/svg" xmlns:xlink="http://www.w3.org/1999/xlink" x="0px" y="0px"
	 width="19.479px" height="19.474px" viewBox="40.154 39.729 19.479 19.474" enable-background="new 40.154 39.729 19.479 19.474"
	 xml:space="preserve">
<path d="M56.916,47.084l-0.753-0.752l2.906-2.905c0.751-0.75,0.751-1.966,0-2.717l-0.42-0.419c-0.747-0.75-1.966-0.75-2.716,0
	l-2.907,2.907l-0.751-0.755c-0.728-0.727-1.906-0.727-2.634,0c-0.728,0.728-0.728,1.908,0,2.636l0.753,0.752l-7.358,7.358
	c0,0-1.725,1.466-1.645,2.717c0.079,1.25-0.743,2.263-1.154,2.768c-0.138,0.137-0.08,0.25-0.006,0.33
	c-0.001,0.003-0.004,0.006-0.004,0.006c0.012,0.01,0.028,0.024,0.044,0.041c0.007,0.009,0.013,0.012,0.019,0.016
	c0.004,0.006,0.012,0.013,0.019,0.021c0.018,0.017,0.03,0.031,0.037,0.044c0.001-0.003,0.005-0.003,0.007-0.006
	c0.082,0.075,0.195,0.13,0.333-0.004c0.506-0.412,1.516-1.232,2.766-1.153c1.222,0.075,2.657-1.575,2.714-1.641
	c0.001,0,0.003,0,0.004-0.002l7.359-7.358l0.751,0.753c0.729,0.726,1.908,0.726,2.635,0C57.645,48.994,57.645,47.812,56.916,47.084
	 M43.376,57.28c-0.786-0.048-1.423,0.466-1.742,0.729c-0.087,0.086-0.156,0.051-0.212,0.003c0,0,0,0.003-0.001,0.003
	c-0.004-0.009-0.015-0.018-0.025-0.03c-0.004-0.003-0.007-0.008-0.011-0.01c-0.004-0.006-0.008-0.006-0.011-0.009
	c-0.011-0.014-0.021-0.025-0.029-0.025c0.001,0,0.001-0.003,0.003-0.003c-0.048-0.054-0.084-0.127,0.003-0.209
	c0.259-0.32,0.775-0.959,0.727-1.747c-0.05-0.784,1.034-1.71,1.034-1.71l0.001,0.003l7.862-7.863l1.973,1.973l-7.861,7.864
	c0,0-0.003,0-0.004,0.003C45.049,56.29,44.146,57.331,43.376,57.28"/>
</svg>
