<?xml version="1.0" encoding="utf-8"?>
<!-- Generator: Adobe Illustrator 14.0.0, SVG Export Plug-In . SVG Version: 6.00 Build 43363)  -->
<!DOCTYPE svg PUBLIC "-//W3C//DTD SVG 1.1//EN" "http://www.w3.org/Graphics/SVG/1.1/DTD/svg11.dtd">
<svg version="1.1" id="Layer_1" xmlns="http://www.w3.org/2000/svg" xmlns:xlink="http://www.w3.org/1999/xlink" x="0px" y="0px"
	 width="192.729px" height="54.264px" viewBox="0 0 192.729 54.264" enable-background="new 0 0 192.729 54.264"
	 xml:space="preserve">
<g>
	<g>
		<path fill="#E8562A" d="M108.881,22.859h3.686v2.057h-9.86v-2.057h3.686v-2.46H96.298v2.46h3.686v2.057h-9.859v-2.057h3.686V15.87
			h-3.686v-2.058h9.859v2.058h-3.686v2.459h10.092V15.87h-3.686v-2.058h9.86v2.058h-3.686L108.881,22.859L108.881,22.859z"/>
		<path fill="#E8562A" d="M124.885,18.345v-1.32h1.986v4.682h-1.986v-1.319h-4.837v2.475h10.192v-2.3h1.984v4.354h-17.947V22.86
			h3.277V15.87h-3.277v-2.058h17.947v4.334h-1.984V15.87h-10.192v2.475H124.885z"/>
		<path fill="#E8562A" d="M139.901,22.859h8.263v-2.443h1.76v4.5h-15.49v-2.057h3.264V15.87h-3.264v-2.058h8.733v2.058h-3.266
			V22.859L139.901,22.859z"/>
		<path fill="#E8562A" d="M156.667,22.859h8.262v-2.443h1.759v4.5H151.2v-2.057h3.264V15.87H151.2v-2.058h8.73v2.058h-3.264V22.859
			L156.667,22.859z"/>
		<path fill="#E8562A" d="M175.184,13.604c4.508,0,7.53,2.688,7.53,5.79c0,3.557-3.022,5.774-7.53,5.774
			c-4.67,0-7.437-2.22-7.437-5.774C167.747,16.29,170.514,13.604,175.184,13.604z M175.184,23.1c2.658,0,5.155-1.035,5.155-3.705
			c0-2.443-2.497-3.72-5.155-3.72c-2.537,0-5.075,1.274-5.075,3.72C170.108,22.064,172.646,23.1,175.184,23.1z"/>
		<path fill="#E8562A" d="M90.122,38.36h3.396V31.37h-3.396v-2.057h13.921c2.765,0,4.605,0.768,4.605,3.182
			c0,1.051-0.401,1.891-1.584,2.34c1.166,0.51,1.872,1.438,1.872,2.744c0,2.041-1.699,2.836-3.585,2.836H90.122V38.36z
			 M103.827,33.889c1.323,0,2.376-0.148,2.376-1.26c0-1.125-0.994-1.26-2.376-1.26h-7.805v2.52H103.827z M103.827,38.36
			c1.323,0,2.489-0.148,2.489-1.26c0-1.125-1.107-1.26-2.489-1.26h-7.805v2.52H103.827z"/>
		<path fill="#E8562A" d="M128.104,38.36h2.534v2.057h-8.422V38.36h2.764l-1.192-1.711h-6.982l-1.195,1.711h2.767v2.057h-8.423
			V38.36h2.532l6.363-9.045h2.896L128.104,38.36z M118.229,34.625h4.132l-2.071-2.973L118.229,34.625z"/>
		<path fill="#E8562A" d="M149.302,38.781c0.69,0,1.281-0.314,1.281-1.035v-0.33h2.073v0.357c0,2.371-1.613,3.062-3.369,3.062
			c-5.154,0-4.333-4.771-8.652-4.771h-2.663v2.295h3.688v2.057h-9.862V38.36h3.686V31.37h-3.686v-2.057h12.468
			c4.463,0,5.097,1.65,5.097,3.375c0,1.426-0.461,3.029-4.104,3.314C147.329,36.95,147.357,38.781,149.302,38.781z M137.972,34.01
			h6.146c1.942,0,2.88-0.256,2.88-1.32c0-1.062-0.938-1.318-2.88-1.318h-6.146V34.01z"/>
	</g>
	<path fill="#E8562A" d="M191.729,0H82.254h-2.285H1C0.447,0,0,0.448,0,1v52.264c0,0.553,0.445,1,1,1h78.969h2.285H191.73
		c0.554,0,1-0.447,1-1V1C192.729,0.448,192.281,0,191.729,0z M68.657,19.338h-8.774v15.473h8.774v4.857H45.035v-4.857h9.247v-6.268
		h-25.23v6.268h9.089v4.857H14.597v-4.857h8.932V19.338h-8.932v-4.741h23.544v4.741h-9.089v4.701h25.23v-4.701h-9.247v-4.741h23.622
		V19.338z M189.729,51.264H83.254V3H189.73L189.729,51.264L189.729,51.264z"/>
</g>
</svg>
