<?xml version="1.0" encoding="utf-8"?>
<!-- Generator: Adobe Illustrator 16.0.4, SVG Export Plug-In . SVG Version: 6.00 Build 0)  -->
<!DOCTYPE svg PUBLIC "-//W3C//DTD SVG 1.1//EN" "http://www.w3.org/Graphics/SVG/1.1/DTD/svg11.dtd">
<svg version="1.1" id="Layer_1" xmlns="http://www.w3.org/2000/svg" xmlns:xlink="http://www.w3.org/1999/xlink" x="0px" y="0px"
	 width="700px" height="171.877px" viewBox="0 0 700 171.877" enable-background="new 0 0 700 171.877" xml:space="preserve">
<g opacity="0.3">
	<rect x="255.141" y="6.229" fill="#FFFFFF" width="203.533" height="151.612"/>
	<path d="M256.841,13.679h-15.182v155.767h207.689v-15.184h-4.153v11.029H245.812V17.833h11.029V13.679z"/>
	<path d="M456.224,154.265H256.841V6.804h199.383V154.265z M460.377,2.65H252.688v155.766h207.689V2.65z"/>
	
		<rect x="404.212" y="17.351" fill="#FFFFFF" stroke="#000000" stroke-width="4" stroke-miterlimit="10" width="40.155" height="49.238"/>
	
		<line fill="none" stroke="#000000" stroke-width="4.4116" stroke-miterlimit="10" x1="276.529" y1="76.564" x2="370.277" y2="76.564"/>
	
		<line fill="none" stroke="#000000" stroke-width="4.4116" stroke-miterlimit="10" x1="276.529" y1="90.351" x2="370.277" y2="90.351"/>
	
		<line fill="none" stroke="#000000" stroke-width="4.4116" stroke-miterlimit="10" x1="276.529" y1="104.136" x2="370.277" y2="104.136"/>
	<text transform="matrix(1 0 0 1 411.1572 51.2832)" font-family="'OpenSans-Bold'" font-size="29.7163">@</text>
</g>
<g>
	
		<line fill="none" stroke="#E8562A" stroke-width="5.8035" stroke-miterlimit="10" x1="497.655" y1="-0.249" x2="497.655" y2="27.608"/>
	
		<line fill="none" stroke="#E8562A" stroke-width="5.8035" stroke-miterlimit="10" x1="511.583" y1="13.679" x2="483.726" y2="13.679"/>
</g>
<g>
	
		<line fill="none" stroke="#E8562A" stroke-width="5.8035" stroke-miterlimit="10" x1="182.715" y1="142.905" x2="182.715" y2="170.762"/>
	
		<line fill="none" stroke="#E8562A" stroke-width="5.8035" stroke-miterlimit="10" x1="196.644" y1="156.833" x2="168.787" y2="156.833"/>
</g>
<g>
	
		<line fill="none" stroke="#E8562A" stroke-width="5.8035" stroke-miterlimit="10" x1="130.097" y1="101.892" x2="130.097" y2="129.749"/>
	
		<line fill="none" stroke="#E8562A" stroke-width="5.8035" stroke-miterlimit="10" x1="144.025" y1="115.821" x2="116.168" y2="115.821"/>
</g>
<g>
	
		<line fill="none" stroke="#E8562A" stroke-width="4.1914" stroke-miterlimit="10" x1="189.68" y1="66.297" x2="189.68" y2="86.416"/>
	
		<line fill="none" stroke="#E8562A" stroke-width="4.1914" stroke-miterlimit="10" x1="199.739" y1="76.357" x2="179.621" y2="76.357"/>
</g>
<g>
	
		<line fill="none" stroke="#E8562A" stroke-width="5.8035" stroke-miterlimit="10" x1="557.238" y1="25.287" x2="557.238" y2="53.144"/>
	
		<line fill="none" stroke="#E8562A" stroke-width="5.8035" stroke-miterlimit="10" x1="571.166" y1="39.215" x2="543.309" y2="39.215"/>
</g>
</svg>
