<?xml version="1.0" encoding="utf-8"?>
<!-- Generator: Adobe Illustrator 16.0.4, SVG Export Plug-In . SVG Version: 6.00 Build 0)  -->
<!DOCTYPE svg PUBLIC "-//W3C//DTD SVG 1.1//EN" "http://www.w3.org/Graphics/SVG/1.1/DTD/svg11.dtd">
<svg version="1.1" id="Layer_1" xmlns="http://www.w3.org/2000/svg" xmlns:xlink="http://www.w3.org/1999/xlink" x="0px" y="0px"
	 width="700px" height="195px" viewBox="0 0 700 195" enable-background="new 0 0 700 195" xml:space="preserve">
<g opacity="0.5">
	<g>
		<rect x="374.611" y="29.211" fill="#EBECEE" width="178.666" height="133.087"/>
		<path fill="#55595B" d="M551.452,160.475H376.436V31.034h175.018L551.452,160.475L551.452,160.475z M555.1,27.388H372.787v136.733
			H555.1V27.388z"/>
		<rect x="374.611" y="29.211" fill="#FFFFFF" width="178.666" height="19.144"/>
		<path fill="#55595B" d="M551.452,46.531H376.436V31.034h175.018L551.452,46.531L551.452,46.531z M555.1,27.388H372.787v22.789
			H555.1V27.388z"/>
		<rect x="397.4" y="74.789" fill="#FFFFFF" width="46.487" height="28.257"/>
		<path fill="#55595B" d="M442.066,101.225h-42.843V76.612h42.843V101.225z M445.712,72.966H395.58v31.904h50.132V72.966
			L445.712,72.966z"/>
		<path fill="#55595B" d="M408.595,86.755c2.021,0,3.654-1.635,3.654-3.652c0-2.016-1.635-3.652-3.654-3.652
			c-2.018,0-3.653,1.636-3.653,3.652C404.94,85.121,406.577,86.755,408.595,86.755"/>
		<path fill="#55595B" d="M424.09,87.879l-6.859,7.034c-0.516,0.527-1.334,0.609-1.941,0.194l-3.309-2.256
			c-0.604-0.412-1.414-0.336-1.933,0.181l-5.86,5.862h10.803h8.104h13.502L426.286,87.9
			C425.695,87.267,424.695,87.257,424.09,87.879"/>
		<rect x="454.829" y="86.639" fill="#55595B" width="77.479" height="3.646"/>
		<rect x="454.829" y="95.754" fill="#55595B" width="77.479" height="3.646"/>
		<rect x="454.829" y="77.523" fill="#55595B" width="36.46" height="3.646"/>
		<rect x="483.998" y="120.366" fill="#FFFFFF" width="46.489" height="28.258"/>
		<path fill="#55595B" d="M528.664,146.8h-42.843v-24.61h42.843V146.8z M532.31,118.543h-50.134v31.902h50.134V118.543z"/>
		<path fill="#55595B" d="M495.699,132.333c2.018,0,3.651-1.636,3.651-3.651c0-2.017-1.635-3.652-3.651-3.652
			c-2.018,0-3.651,1.636-3.651,3.652C492.048,130.697,493.683,132.333,495.699,132.333"/>
		<path fill="#55595B" d="M511.079,133.62l-6.646,6.813c-0.497,0.514-1.292,0.592-1.883,0.189l-3.203-2.186
			c-0.586-0.4-1.371-0.326-1.871,0.174l-5.68,5.682h10.467h7.851h13.084l-9.989-10.654
			C512.632,133.027,511.663,133.02,511.079,133.62"/>
		<rect x="395.58" y="132.217" fill="#55595B" width="77.479" height="3.646"/>
		<rect x="395.58" y="141.331" fill="#55595B" width="77.479" height="3.646"/>
		<rect x="395.58" y="123.102" fill="#55595B" width="36.459" height="3.646"/>
		<rect x="395.58" y="36.959" fill="#55595B" width="63.806" height="3.646"/>
	</g>
	<g>
		<rect x="146.724" y="29.211" fill="#FFFFFF" width="178.664" height="133.087"/>
		<path fill="#55595B" d="M323.565,160.475H148.547V31.034h175.018V160.475z M327.211,27.388h-182.31v136.733h182.311
			L327.211,27.388L327.211,27.388z"/>
		<rect x="174.071" y="65.673" fill="#FFFFFF" width="123.97" height="28.258"/>
		<path fill="#55595B" d="M296.218,92.108H175.894V67.497h120.324V92.108z M299.865,63.851H172.248v31.904h127.618L299.865,63.851
			L299.865,63.851z"/>
		<rect x="229.675" y="73.877" fill="#55595B" width="20.054" height="3.646"/>
		<rect x="229.675" y="82.082" fill="#55595B" width="56.516" height="3.646"/>
		<rect x="172.248" y="50.177" fill="#55595B" width="36.462" height="3.646"/>
		<rect x="286.191" y="50.177" fill="#55595B" width="13.674" height="3.646"/>
		<rect x="267.96" y="50.177" fill="#55595B" width="13.673" height="3.646"/>
		<g>
			<path fill="#55595B" d="M218.636,92.047h-42.751v-24.56h42.751L218.636,92.047L218.636,92.047z M222.275,63.851h-50.027v31.835
				h50.027V63.851z"/>
			<path fill="#55595B" d="M185.236,77.61c2.015,0,3.646-1.631,3.646-3.644c0-2.012-1.631-3.645-3.646-3.645
				c-2.012,0-3.645,1.633-3.645,3.645C181.591,75.979,183.224,77.61,185.236,77.61"/>
			<path fill="#55595B" d="M200.697,78.73l-6.843,7.02c-0.515,0.526-1.333,0.608-1.94,0.194l-3.302-2.251
				c-0.604-0.412-1.409-0.336-1.927,0.181l-5.85,5.85h10.782h8.085h13.476l-10.29-10.971C202.3,78.121,201.303,78.111,200.697,78.73
				"/>
		</g>
		<rect x="174.071" y="107.605" fill="#FFFFFF" width="123.97" height="28.258"/>
		<path fill="#55595B" d="M296.218,134.043H175.894V109.43h120.324V134.043z M299.865,105.782H172.248v31.903h127.618
			L299.865,105.782L299.865,105.782z"/>
		<rect x="229.675" y="115.811" fill="#55595B" width="33.727" height="3.646"/>
		<rect x="229.675" y="124.014" fill="#55595B" width="56.516" height="3.646"/>
		<g>
			<path fill="#55595B" d="M218.636,133.98h-42.751V109.42h42.751L218.636,133.98L218.636,133.98z M222.275,105.782h-50.027v31.836
				h50.027V105.782z"/>
			<path fill="#55595B" d="M185.236,119.543c2.015,0,3.646-1.63,3.646-3.646c0-2.011-1.631-3.644-3.646-3.644
				c-2.012,0-3.645,1.633-3.645,3.644C181.591,117.913,183.224,119.543,185.236,119.543"/>
			<path fill="#55595B" d="M200.697,120.663l-6.843,7.019c-0.515,0.528-1.333,0.608-1.94,0.197l-3.302-2.253
				c-0.604-0.411-1.409-0.335-1.927,0.181l-5.85,5.852h10.782h8.085h13.476l-10.29-10.973
				C202.3,120.053,201.303,120.043,200.697,120.663"/>
		</g>
	</g>
</g>
<g>
	<g>
		<g>
			<defs>
				<circle id="SVGID_1_" cx="426.987" cy="78.669" r="63.209"/>
			</defs>
			<use xlink:href="#SVGID_1_"  overflow="visible" fill="#FFFFFF"/>
			<clipPath id="SVGID_2_">
				<use xlink:href="#SVGID_1_"  overflow="visible"/>
			</clipPath>
			<g clip-path="url(#SVGID_2_)">
				<rect x="351.777" y="5.15" fill="#FFFFFF" width="234.051" height="174.345"/>
				<path fill="#FFFFFF" d="M583.438,177.105H354.166V7.539h229.271V177.105L583.438,177.105z M588.215,2.763H349.387v179.119
					h238.828V2.763L588.215,2.763z"/>
				<rect x="351.777" y="5.15" fill="#FFFFFF" width="234.051" height="25.077"/>
				<path fill="#FFFFFF" d="M583.438,27.839H354.166v-20.3h229.271V27.839L583.438,27.839z M588.215,2.763H349.387v29.853h238.828
					V2.763L588.215,2.763z"/>
				<rect x="381.629" y="64.857" fill="#FFFFFF" width="60.901" height="37.018"/>
				<path fill="#FFFFFF" d="M440.143,99.488h-56.125V67.246h56.125V99.488z M444.92,62.47h-65.677v41.794h65.677V62.47z"/>
				<path fill="#FFFFFF" d="M396.294,80.533c2.646,0,4.786-2.142,4.786-4.784c0-2.641-2.141-4.784-4.786-4.784
					c-2.642,0-4.785,2.143-4.785,4.784C391.509,78.391,393.652,80.533,396.294,80.533"/>
				<path fill="#FFFFFF" d="M416.592,82.004l-8.982,9.215c-0.676,0.69-1.749,0.798-2.547,0.255l-4.334-2.957
					c-0.791-0.538-1.852-0.439-2.53,0.238l-7.681,7.68h14.155h10.615h17.688l-13.509-14.403
					C418.695,81.204,417.388,81.191,416.592,82.004"/>
				<rect x="456.861" y="80.382" fill="#FFFFFF" width="101.5" height="4.775"/>
				<rect x="456.861" y="92.322" fill="#FFFFFF" width="101.5" height="4.777"/>
				<rect x="456.861" y="68.439" fill="#FFFFFF" width="47.765" height="4.777"/>
				<rect x="495.072" y="124.564" fill="#FFFFFF" width="60.901" height="37.019"/>
				<path fill="#FFFFFF" d="M553.587,159.191h-56.125v-32.239h56.125V159.191z M558.361,122.177h-65.676v41.796h65.676V122.177z"/>
				<path fill="#FFFFFF" d="M510.402,140.24c2.643,0,4.785-2.145,4.785-4.784c0-2.642-2.144-4.783-4.785-4.783
					c-2.646,0-4.784,2.142-4.784,4.783S507.758,140.24,510.402,140.24"/>
				<path fill="#FFFFFF" d="M530.549,141.926l-8.706,8.928c-0.65,0.672-1.691,0.774-2.467,0.248l-4.196-2.86
					c-0.767-0.525-1.796-0.429-2.45,0.227l-7.441,7.442h13.715h10.281h17.138l-13.084-13.956
					C532.584,141.152,531.315,141.141,530.549,141.926"/>
				<rect x="379.243" y="140.088" fill="#FFFFFF" width="101.5" height="4.776"/>
				<rect x="379.243" y="152.027" fill="#FFFFFF" width="101.5" height="4.777"/>
				<rect x="379.243" y="128.146" fill="#FFFFFF" width="47.764" height="4.775"/>
				<rect x="379.243" y="15.301" fill="#FFFFFF" width="83.588" height="4.776"/>
			</g>
		</g>
	</g>
	<g opacity="0.5">
		<g>
			<defs>
				<circle id="SVGID_3_" cx="426.987" cy="78.669" r="63.209"/>
			</defs>
			<clipPath id="SVGID_4_">
				<use xlink:href="#SVGID_3_"  overflow="visible"/>
			</clipPath>
			<g clip-path="url(#SVGID_4_)">
				<rect x="351.777" y="5.15" fill="#EBECEE" width="234.051" height="174.345"/>
				<path fill="#55595B" d="M583.438,177.105H354.166V7.539h229.271V177.105L583.438,177.105z M588.215,2.763H349.387v179.119
					h238.828V2.763L588.215,2.763z"/>
				<rect x="351.777" y="5.15" fill="#FFFFFF" width="234.051" height="25.077"/>
				<path fill="#55595B" d="M583.438,27.839H354.166v-20.3h229.271V27.839L583.438,27.839z M588.215,2.763H349.387v29.853h238.828
					V2.763L588.215,2.763z"/>
				<rect x="381.629" y="64.857" fill="#FFFFFF" width="60.901" height="37.018"/>
				<path fill="#55595B" d="M440.143,99.488h-56.125V67.246h56.125V99.488z M444.92,62.47h-65.677v41.794h65.677V62.47z"/>
				<path fill="#55595B" d="M396.294,80.533c2.646,0,4.786-2.142,4.786-4.784c0-2.641-2.141-4.784-4.786-4.784
					c-2.642,0-4.785,2.143-4.785,4.784C391.509,78.391,393.652,80.533,396.294,80.533"/>
				<path fill="#55595B" d="M416.592,82.004l-8.982,9.215c-0.676,0.69-1.749,0.798-2.547,0.255l-4.334-2.957
					c-0.791-0.538-1.852-0.439-2.53,0.238l-7.681,7.68h14.155h10.615h17.688l-13.509-14.403
					C418.695,81.204,417.388,81.191,416.592,82.004"/>
				<rect x="456.861" y="80.382" fill="#55595B" width="101.5" height="4.775"/>
				<rect x="456.861" y="92.322" fill="#55595B" width="101.5" height="4.777"/>
				<rect x="456.861" y="68.439" fill="#55595B" width="47.765" height="4.777"/>
				<rect x="495.072" y="124.564" fill="#FFFFFF" width="60.901" height="37.019"/>
				<path fill="#55595B" d="M553.587,159.191h-56.125v-32.239h56.125V159.191z M558.361,122.177h-65.676v41.796h65.676V122.177z"/>
				<path fill="#55595B" d="M510.402,140.24c2.643,0,4.785-2.145,4.785-4.784c0-2.642-2.144-4.783-4.785-4.783
					c-2.646,0-4.784,2.142-4.784,4.783S507.758,140.24,510.402,140.24"/>
				<path fill="#55595B" d="M530.549,141.926l-8.706,8.928c-0.65,0.672-1.691,0.774-2.467,0.248l-4.196-2.86
					c-0.767-0.525-1.796-0.429-2.45,0.227l-7.441,7.442h13.715h10.281h17.138l-13.084-13.956
					C532.584,141.152,531.315,141.141,530.549,141.926"/>
				<rect x="379.243" y="140.088" fill="#55595B" width="101.5" height="4.776"/>
				<rect x="379.243" y="152.027" fill="#55595B" width="101.5" height="4.777"/>
				<rect x="379.243" y="128.146" fill="#55595B" width="47.764" height="4.775"/>
				<rect x="379.243" y="15.301" fill="#55595B" width="83.588" height="4.776"/>
			</g>
		</g>
	</g>
	<path fill="#FFFFFF" stroke="#E8562A" stroke-width="4.102" stroke-miterlimit="10" d="M479.664,123.729l-9.634,9.637
		l56.712,56.712c2.661,2.663,6.976,2.663,9.637,0c2.661-2.658,2.661-6.974,0-9.634L479.664,123.729z"/>
	<path fill="#FFFFFF" stroke="#E8562A" stroke-width="4.102" stroke-miterlimit="10" d="M426.987,5.517
		c-40.401,0-73.151,32.751-73.151,73.152c0,40.401,32.75,73.151,73.151,73.151c40.398,0,73.15-32.752,73.15-73.151
		C500.138,38.269,467.387,5.517,426.987,5.517z M426.987,139.523c-33.609,0-60.855-27.246-60.855-60.854
		c0-33.609,27.246-60.855,60.855-60.855c33.607,0,60.854,27.246,60.854,60.855C487.842,112.277,460.596,139.523,426.987,139.523z"/>
</g>
</svg>
