<?xml version="1.0" encoding="utf-8"?>
<!-- Generator: Adobe Illustrator 16.0.4, SVG Export Plug-In . SVG Version: 6.00 Build 0)  -->
<!DOCTYPE svg PUBLIC "-//W3C//DTD SVG 1.1//EN" "http://www.w3.org/Graphics/SVG/1.1/DTD/svg11.dtd">
<svg version="1.1" id="Layer_1" xmlns="http://www.w3.org/2000/svg" xmlns:xlink="http://www.w3.org/1999/xlink" x="0px" y="0px"
	 width="699.84px" height="195px" viewBox="0.08 0 699.84 195" enable-background="new 0.08 0 699.84 195" xml:space="preserve">
<path display="none" fill="none" stroke="#ED5834" stroke-width="9" stroke-miterlimit="10" d="M352.5,83.938c0-52,59-61.5,93-44.5
	s23,65,53,59c30-6,34,5,42,18s49,13,49,13"/>
<path display="none" fill="none" stroke="#E8562A" stroke-width="4.102" stroke-miterlimit="10" d="M342.5,83.438
	c0-55-86-55-86,27.5c0,74.5-47,67.5-72,41.5c-16-18-40.437-10.828-54.437,8.172S95.5,161.438,95.5,161.438"/>
<g opacity="0.5">
	<rect x="237.904" y="12.438" fill="#FFFFFF" width="224.191" height="167"/>
	<g>
		<g>
			<polyline fill="none" stroke="#55595B" stroke-width="5.7192" stroke-miterlimit="10" points="237.904,20.445 237.904,12.438 
				245.911,12.438 			"/>
			
				<line fill="none" stroke="#55595B" stroke-width="5.7192" stroke-miterlimit="10" stroke-dasharray="16.3735,11.6954" x1="257.606" y1="12.438" x2="448.241" y2="12.438"/>
			<polyline fill="none" stroke="#55595B" stroke-width="5.7192" stroke-miterlimit="10" points="454.089,12.438 462.096,12.438 
				462.096,20.445 			"/>
			
				<line fill="none" stroke="#55595B" stroke-width="5.7192" stroke-miterlimit="10" stroke-dasharray="16.2601,11.6143" x1="462.096" y1="32.06" x2="462.096" y2="165.624"/>
			<polyline fill="none" stroke="#55595B" stroke-width="5.7192" stroke-miterlimit="10" points="462.096,171.432 462.096,179.438 
				454.089,179.438 			"/>
			
				<line fill="none" stroke="#55595B" stroke-width="5.7192" stroke-miterlimit="10" stroke-dasharray="16.3735,11.6954" x1="442.394" y1="179.438" x2="251.759" y2="179.438"/>
			<polyline fill="none" stroke="#55595B" stroke-width="5.7192" stroke-miterlimit="10" points="245.911,179.438 237.904,179.438 
				237.904,171.432 			"/>
			
				<line fill="none" stroke="#55595B" stroke-width="5.7192" stroke-miterlimit="10" stroke-dasharray="16.2601,11.6143" x1="237.904" y1="159.816" x2="237.904" y2="26.252"/>
		</g>
	</g>
	<rect x="272.219" y="53.044" fill="#EBECEE" width="41.179" height="41.178"/>
	<path fill="#55595B" d="M311.109,91.935h-36.604V55.333h36.604V91.935z M315.685,50.757h-45.752V96.51h45.752V50.757z"/>
	<rect x="327.123" y="50.757" fill="#55595B" width="45.754" height="45.753"/>
	<rect x="386.603" y="53.044" fill="#EBECEE" width="41.18" height="41.178"/>
	<path fill="#55595B" d="M425.493,91.935H388.89V55.333h36.604V91.935z M430.068,50.757h-45.753V96.51h45.753V50.757z"/>
	<path fill="#FFFFFF" d="M407.191,111.952c-2.207,0-4.003-1.796-4.003-4.003c0-2.208,1.796-4.004,4.003-4.004
		c2.208,0,4.004,1.796,4.004,4.004C411.195,110.156,409.399,111.952,407.191,111.952"/>
	<path fill="#55595B" d="M407.191,105.661c1.262,0,2.287,1.026,2.287,2.288c0,1.261-1.025,2.287-2.287,2.287
		c-1.263,0-2.287-1.026-2.287-2.287C404.904,106.688,405.93,105.661,407.191,105.661 M407.191,102.229
		c-3.157,0-5.72,2.562-5.72,5.721s2.562,5.719,5.72,5.719s5.72-2.561,5.72-5.719S410.35,102.229,407.191,102.229"/>
	<path fill="#55595B" d="M355.719,107.949c0,3.158-2.561,5.719-5.719,5.719c-3.159,0-5.719-2.561-5.719-5.719
		s2.56-5.721,5.719-5.721C353.158,102.229,355.719,104.791,355.719,107.949"/>
	<path fill="#FFFFFF" d="M292.808,111.952c-2.207,0-4.003-1.796-4.003-4.003c0-2.208,1.796-4.004,4.003-4.004
		c2.208,0,4.003,1.796,4.003,4.004C296.812,110.156,295.016,111.952,292.808,111.952"/>
	<path fill="#55595B" d="M292.808,105.661c1.262,0,2.288,1.026,2.288,2.288c0,1.261-1.025,2.287-2.288,2.287
		c-1.263,0-2.288-1.026-2.288-2.287C290.521,106.688,291.546,105.661,292.808,105.661 M292.808,102.229
		c-3.159,0-5.719,2.562-5.719,5.721s2.561,5.719,5.719,5.719c3.158,0,5.719-2.561,5.719-5.719S295.966,102.229,292.808,102.229"/>
	<rect x="275.651" y="126.25" fill="#55595B" width="34.315" height="4.575"/>
	<rect x="281.37" y="136.545" fill="#55595B" width="22.877" height="4.575"/>
	<rect x="332.842" y="126.25" fill="#55595B" width="34.315" height="4.575"/>
	<rect x="338.562" y="136.545" fill="#55595B" width="22.877" height="4.575"/>
	<rect x="390.034" y="126.25" fill="#55595B" width="34.314" height="4.575"/>
	<rect x="395.754" y="136.545" fill="#55595B" width="22.876" height="4.575"/>
	<polygon fill="#FFFFFF" points="337.733,74.851 340.973,71.61 346.179,76.815 359.024,63.969 362.268,67.209 346.179,83.298 	"/>
</g>
<g>
	
		<line fill="none" stroke="#E8562A" stroke-width="4.102" stroke-miterlimit="10" x1="514.828" y1="29.129" x2="514.829" y2="52.066"/>
	
		<line fill="none" stroke="#E8562A" stroke-width="4.102" stroke-miterlimit="10" x1="503.36" y1="40.599" x2="526.297" y2="40.599"/>
</g>
<g>
	
		<line fill="none" stroke="#E8562A" stroke-width="4.102" stroke-miterlimit="10" x1="553.284" y1="75.076" x2="553.284" y2="94.014"/>
	
		<line fill="none" stroke="#E8562A" stroke-width="4.102" stroke-miterlimit="10" x1="543.815" y1="84.545" x2="562.752" y2="84.546"/>
</g>
<g>
	<path fill="#FFFFFF" stroke="#E8562A" stroke-width="5" stroke-miterlimit="10" d="M160.95,116.41
		c3.905-3.904,3.905-10.236,0-14.143l0,0c-3.905-3.906-10.237-3.904-14.142,0l-62.735,62.734c-3.905,3.905-3.905,10.236,0,14.143
		l0,0c3.905,3.905,10.237,3.905,14.142,0L160.95,116.41z"/>
	
		<line fill="none" stroke="#E8562A" stroke-width="4.102" stroke-miterlimit="10" x1="131.967" y1="117.107" x2="146.11" y2="131.251"/>
	<g>
		
			<line fill="none" stroke="#E8562A" stroke-width="4.102" stroke-miterlimit="10" x1="121.536" y1="81.186" x2="121.537" y2="104.123"/>
		
			<line fill="none" stroke="#E8562A" stroke-width="4.102" stroke-miterlimit="10" x1="110.068" y1="92.655" x2="133.004" y2="92.655"/>
	</g>
	<g>
		
			<line fill="none" stroke="#E8562A" stroke-width="4.102" stroke-miterlimit="10" x1="186.71" y1="114.18" x2="186.71" y2="133.116"/>
		
			<line fill="none" stroke="#E8562A" stroke-width="4.102" stroke-miterlimit="10" x1="177.242" y1="123.646" x2="196.178" y2="123.648"/>
	</g>
	<g>
		
			<line fill="none" stroke="#E8562A" stroke-width="4.102" stroke-miterlimit="10" x1="159.625" y1="140.159" x2="159.625" y2="153.764"/>
		
			<line fill="none" stroke="#E8562A" stroke-width="4.102" stroke-miterlimit="10" x1="152.823" y1="146.962" x2="166.426" y2="146.962"/>
	</g>
</g>
</svg>
