<?xml version="1.0" encoding="utf-8"?>
<!-- Generator: Adobe Illustrator 16.0.4, SVG Export Plug-In . SVG Version: 6.00 Build 0)  -->
<!DOCTYPE svg PUBLIC "-//W3C//DTD SVG 1.1//EN" "http://www.w3.org/Graphics/SVG/1.1/DTD/svg11.dtd">
<svg version="1.1" id="Layer_1" xmlns="http://www.w3.org/2000/svg" xmlns:xlink="http://www.w3.org/1999/xlink" x="0px" y="0px"
	 width="700px" height="171.877px" viewBox="0 0 700 171.877" enable-background="new 0 0 700 171.877" xml:space="preserve">
<g opacity="0.5">
	<rect x="507.729" y="17.205" fill="#EBECEE" width="184.543" height="137.466"/>
	<path fill="#55595B" d="M690.39,152.789H509.61V19.088H690.39V152.789z M694.155,15.322H505.845v141.231h188.312L694.155,15.322
		L694.155,15.322z"/>
	<rect x="554.806" y="66.637" fill="#FFFFFF" width="52.728" height="38.604"/>
	<path fill="#55595B" d="M605.649,103.356h-48.962V68.52h48.962V103.356z M609.416,64.753h-56.494v42.37h56.494V64.753z"/>
	<rect x="618.831" y="69.461" fill="#55595B" width="28.247" height="3.766"/>
	<rect x="618.831" y="78.877" fill="#55595B" width="28.247" height="3.766"/>
	<rect x="618.831" y="88.293" fill="#55595B" width="28.247" height="3.767"/>
	<rect x="632.954" y="97.708" fill="#55595B" width="14.124" height="3.768"/>
	<path fill="#55595B" d="M565.33,83.634c2.708,0,4.903-2.196,4.903-4.904s-2.195-4.903-4.903-4.903s-4.904,2.195-4.904,4.903
		S562.622,83.634,565.33,83.634"/>
	<path fill="#55595B" d="M586.136,85.141l-9.211,9.445c-0.69,0.709-1.792,0.819-2.608,0.263l-4.442-3.029
		c-0.812-0.553-1.898-0.449-2.591,0.242l-7.872,7.871h14.506h10.879h18.133L589.083,85.17
		C588.287,84.322,586.946,84.309,586.136,85.141"/>
</g>
<g>
	<rect x="237.707" y="2.292" opacity="0.3" fill="#FFFFFF" width="224.586" height="167.294"/>
	<path opacity="0.5" fill="#55595B" d="M460.002,167.294H239.999V4.583h220.003V167.294z M464.585,0h-229.17v171.877h229.17V0z"/>
	<rect x="269.791" y="29.792" opacity="0.5" fill="#55595B" width="85.939" height="4.583"/>
	<rect x="413.021" y="29.792" opacity="0.5" fill="#55595B" width="22.916" height="4.583"/>
	<polyline opacity="0.5" fill="#55595B" points="269.791,44.687 269.791,40.104 321.354,40.104 321.354,44.687 	"/>
	<rect x="269.791" y="91.668" fill="#E8562A" width="11.458" height="45.834"/>
	<rect x="286.979" y="103.126" fill="#E8562A" width="11.458" height="34.376"/>
	<rect x="304.166" y="74.48" fill="#E8562A" width="11.458" height="63.022"/>
	<rect x="407.293" y="74.48" fill="#E8562A" width="11.458" height="63.022"/>
	<rect x="390.104" y="51.563" fill="#E8562A" width="11.459" height="85.939"/>
	<rect x="372.917" y="74.48" fill="#E8562A" width="11.458" height="63.022"/>
	<rect x="321.354" y="85.938" fill="#E8562A" width="11.459" height="51.563"/>
	<rect x="355.729" y="85.938" fill="#E8562A" width="11.459" height="51.563"/>
	<rect x="424.48" y="85.938" fill="#E8562A" width="11.457" height="51.563"/>
	<rect x="338.542" y="97.397" fill="#E8562A" width="11.458" height="40.104"/>
	<rect x="424.48" y="143.231" opacity="0.5" fill="#55595B" width="11.457" height="4.582"/>
	<rect x="269.791" y="143.231" opacity="0.5" fill="#55595B" width="11.458" height="4.582"/>
</g>
<g opacity="0.5">
	<rect x="8.003" y="17.41" fill="#EBECEE" width="183.994" height="137.057"/>
	<path fill="#55595B" d="M190.119,152.589H9.881V19.288h180.238V152.589z M193.875,15.533H6.125v140.812h187.749L193.875,15.533
		L193.875,15.533z"/>
	<rect x="8.003" y="17.41" fill="#FFFFFF" width="183.994" height="19.714"/>
	<path fill="#55595B" d="M190.119,35.246H9.881V19.288h180.238V35.246z M193.875,15.533H6.125v23.469h187.749L193.875,15.533
		L193.875,15.533z"/>
	<rect x="31.472" y="80.347" fill="#FFFFFF" width="47.876" height="29.101"/>
	<path fill="#55595B" d="M77.47,107.571H33.349V82.225H77.47V107.571z M81.225,78.47H29.594v32.856h51.631V78.47z"/>
	<path fill="#55595B" d="M43,92.671c2.078,0,3.762-1.684,3.762-3.761c0-2.076-1.684-3.761-3.762-3.761s-3.762,1.685-3.762,3.761
		C39.239,90.987,40.923,92.671,43,92.671"/>
	<path fill="#55595B" d="M58.958,93.827l-7.064,7.244c-0.53,0.543-1.374,0.628-2.001,0.201l-3.407-2.324
		c-0.622-0.424-1.457-0.346-1.988,0.187l-6.037,6.038h11.126h8.345h13.907l-10.62-11.324C60.609,93.198,59.58,93.188,58.958,93.827"
		/>
	<rect x="90.613" y="92.551" fill="#55595B" width="79.793" height="3.755"/>
	<rect x="90.613" y="101.938" fill="#55595B" width="79.793" height="3.754"/>
	<rect x="90.613" y="83.164" fill="#55595B" width="37.549" height="3.755"/>
</g>
</svg>
