<?xml version="1.0" encoding="utf-8"?>
<!-- Generator: Adobe Illustrator 16.0.4, SVG Export Plug-In . SVG Version: 6.00 Build 0)  -->
<!DOCTYPE svg PUBLIC "-//W3C//DTD SVG 1.1//EN" "http://www.w3.org/Graphics/SVG/1.1/DTD/svg11.dtd">
<svg version="1.1" id="Layer_1" xmlns="http://www.w3.org/2000/svg" xmlns:xlink="http://www.w3.org/1999/xlink" x="0px" y="0px"
	 width="700px" height="195px" viewBox="0 0 700 195" enable-background="new 0 0 700 195" xml:space="preserve">
<path display="none" fill="none" stroke="#ED5834" stroke-width="9" stroke-miterlimit="10" d="M352.5,83.938c0-52,59-61.5,93-44.5
	s23,65,53,59c30-6,34,5,42,18s49,13,49,13"/>
<path display="none" fill="none" stroke="#E8562A" stroke-width="4.102" stroke-miterlimit="10" d="M342.5,83.438
	c0-55-86-55-86,27.5c0,74.5-47,67.5-72,41.5c-16-18-40.437-10.828-54.437,8.172S95.5,161.438,95.5,161.438"/>
<g opacity="0.5">
	<g>
		<path fill="#FFFFFF" stroke="#55595B" stroke-width="3" stroke-miterlimit="10" d="M90.024,139.162
			c5.083,6.036,4.308,15.052-1.731,20.133c-6.037,5.081-15.051,4.309-20.134-1.729c-5.081-6.041-8.889-32.754-8.889-32.754
			S84.944,133.124,90.024,139.162z"/>
		<line fill="none" stroke="#55595B" stroke-width="3" stroke-miterlimit="10" x1="73.783" y1="142.055" x2="97.614" y2="170.367"/>
	</g>
	<g>
		<path fill="#FFFFFF" stroke="#55595B" stroke-width="3" stroke-miterlimit="10" d="M221.544,184.532
			c-14.64,0.001-29.737-8.724-39.927-19.321l-0.106-0.115c-5.548-6.24-12.548-9.351-20.229-9.002
			c-10.08,0.463-20.546,6.775-27.998,16.889c-4.464,6.06-10.005,9.479-16.47,10.166c-12.436,1.326-20.237-13.135-20.237-13.135
			c0.082,0.07,10.517,6.147,19.423,5.178c4.184-0.455,7.731-2.729,10.843-6.955c8.869-12.034,21.606-19.562,34.072-20.133
			c10.16-0.477,19.323,3.552,26.521,11.617c15.626,16.217,33.132,19.24,43.556,15.045c14.071-5.668,21.508-24.281,21.508-53.826
			c0-21.74,5.862-39.923,16.952-52.583c9.603-10.962,22.922-17.249,36.542-17.249c10.817,0,20.834,3.912,28.203,11.015
			c8.049,7.759,12.303,18.588,12.303,31.316h-8c0-10.504-3.408-19.342-9.855-25.557c-5.869-5.659-13.914-8.775-22.65-8.775
			c-21.911,0-45.494,19.349-45.494,61.833c0,41.793-14.421,56.375-26.519,61.246C229.96,183.805,225.77,184.531,221.544,184.532z"/>
	</g>
	<g>
		<path fill="#FFFFFF" stroke="#55595B" stroke-width="3" stroke-miterlimit="10" d="M483.695,45.166
			c-5.58,5.581-14.628,5.581-20.209,0c-5.58-5.58-5.58-14.627,0-20.208c5.581-5.581,31.871-11.663,31.871-11.663
			S489.274,39.586,483.695,45.166z"/>
		<line fill="none" stroke="#55595B" stroke-width="3" stroke-miterlimit="10" x1="479.422" y1="29.231" x2="453.254" y2="55.399"/>
	</g>
	<g>
		<path fill="#FFFFFF" stroke="#55595B" stroke-width="3" stroke-linecap="round" stroke-miterlimit="10" d="M536.668,128.796
			c-0.584-0.948-1.146-1.886-1.699-2.808c-6.767-11.278-10.854-18.09-35.586-13.139c-2.113,0.422-4.067,0.62-5.877,0.62
			c-14.721,0.003-19.864-13.175-24.858-25.964c-4.885-12.503-10.419-26.675-25.158-34.045c-20.375-10.187-48.121-9.574-65.976,1.461
			C364.094,63.218,357,76.709,357,93.938h-9c0-25.915,13.477-39.683,24.781-46.67c20.654-12.765,51.386-13.528,74.729-1.855
			c17.838,8.919,24.313,25.499,29.52,38.821c5.85,14.978,9.165,22.079,20.587,19.792c30.956-6.191,37.812,5.236,45.068,17.334
			c0.534,0.894,1.079,1.802,1.646,2.721c4.609,7.488,29.619,15.298,45.6,15.298C589.932,139.378,545.536,143.208,536.668,128.796z"
			/>
	</g>
	<rect x="292.5" y="91.438" fill="#FFFFFF" stroke="#55595B" stroke-width="4" stroke-miterlimit="10" width="117" height="18"/>
	<polygon fill="#FFFFFF" stroke="#55595B" stroke-width="4" stroke-miterlimit="10" points="390.04,187.438 311.96,187.438 
		307.96,109.438 394.04,109.438 	"/>
	<g>
		<path fill="#FFFFFF" stroke="#55595B" stroke-width="3" stroke-miterlimit="10" d="M494.015,139.672
			c0-7.893,6.397-14.29,14.29-14.29c7.894,0,14.289,6.397,14.289,14.289c0,7.894-14.29,30.782-14.29,30.782
			S494.015,147.562,494.015,139.672z"/>
		
			<line fill="none" stroke="#55595B" stroke-width="3" stroke-miterlimit="10" x1="508.304" y1="147.917" x2="508.304" y2="110.91"/>
	</g>
	<g>
		<path fill="#FFFFFF" stroke="#55595B" stroke-width="3" stroke-miterlimit="10" d="M618.628,153.639
			c-7.893,0-14.29-6.396-14.29-14.289c0-7.893,6.397-14.289,14.289-14.289c7.893,0,30.782,14.289,30.782,14.289
			S626.518,153.639,618.628,153.639z"/>
		<line fill="none" stroke="#55595B" stroke-width="3" stroke-miterlimit="10" x1="626.873" y1="139.35" x2="589.866" y2="139.35"/>
	</g>
	<g>
		<path fill="#FFFFFF" stroke="#55595B" stroke-width="3" stroke-miterlimit="10" d="M267.286,158.354
			c-4.521-4.521-4.521-11.85,0-16.369c4.52-4.521,11.848-4.521,16.368,0c4.52,4.521,9.446,25.814,9.446,25.814
			S271.805,162.871,267.286,158.354z"/>
		
			<line fill="none" stroke="#55595B" stroke-width="3" stroke-miterlimit="10" x1="280.192" y1="154.891" x2="258.997" y2="133.695"/>
	</g>
	<g>
		<path fill="#FFFFFF" stroke="#55595B" stroke-width="3" stroke-miterlimit="10" d="M243.124,73.958
			c5.581,5.58,5.581,14.628,0,20.209c-5.58,5.58-14.628,5.58-20.208,0c-5.58-5.581-11.662-31.871-11.662-31.871
			S237.545,68.379,243.124,73.958z"/>
		
			<line fill="none" stroke="#55595B" stroke-width="3" stroke-miterlimit="10" x1="227.189" y1="78.231" x2="253.357" y2="104.398"/>
	</g>
	<g>
		<path fill="#FFFFFF" stroke="#55595B" stroke-width="3" stroke-miterlimit="10" d="M168.029,129.361
			c0.001,4.711-3.818,8.529-8.53,8.529c-4.71,0-8.529-3.818-8.529-8.529c0.001-4.711,8.53-18.375,8.53-18.375
			S168.029,124.65,168.029,129.361z"/>
		<line fill="none" stroke="#55595B" stroke-width="3" stroke-miterlimit="10" x1="159.5" y1="124.438" x2="159.5" y2="146.529"/>
	</g>
</g>
<g display="none">
	<g display="inline">
		<path fill="#FFFFFF" stroke="#E8562A" stroke-width="3.2216" stroke-miterlimit="10" d="M362.596,142.357
			c0,7.893-6.397,14.29-14.29,14.29c-7.892,0-14.289-6.396-14.29-14.289c0-7.893,14.29-30.783,14.29-30.783
			S362.595,134.467,362.596,142.357z"/>
		
			<line fill="none" stroke="#E8562A" stroke-width="3.2216" stroke-miterlimit="10" x1="348.306" y1="134.111" x2="348.306" y2="171.118"/>
	</g>
	<path display="inline" fill="#FFFFFF" stroke="#E8562A" stroke-width="3.2216" stroke-miterlimit="10" d="M302,184.5
		c27,0,25.265-13,41.5-13c16.234,0,29,13,45.5,13"/>
</g>
<g>
	<g>
		<g>
			
				<line fill="none" stroke="#E8562A" stroke-width="4" stroke-miterlimit="10" x1="376.758" y1="57.664" x2="376.758" y2="50.664"/>
			<path fill="none" stroke="#E8562A" stroke-width="4" stroke-miterlimit="10" stroke-dasharray="13.4117,9.5798" d="
				M376.758,41.084V-20.83c0-33.276,24.079-60.928,55.764-66.483"/>
			<path fill="none" stroke="#E8562A" stroke-width="4" stroke-miterlimit="10" d="M437.266-87.972
				c2.3-0.237,4.631-0.358,6.992-0.358"/>
		</g>
	</g>
	<g>
		<g>
			<line fill="none" stroke="#E8562A" stroke-width="4" stroke-miterlimit="10" x1="366.758" y1="78.33" x2="366.758" y2="71.33"/>
			<path fill="none" stroke="#E8562A" stroke-width="4" stroke-miterlimit="10" stroke-dasharray="14.3397,10.2426" d="
				M366.758,61.087V-20.83c0-38.693,28.355-70.763,65.422-76.563"/>
			<path fill="none" stroke="#E8562A" stroke-width="4" stroke-miterlimit="10" d="M437.264-98.018
				c2.305-0.206,4.638-0.312,6.994-0.312"/>
		</g>
	</g>
	<g>
		<g>
			
				<line fill="none" stroke="#E8562A" stroke-width="4" stroke-miterlimit="10" x1="356.758" y1="69.664" x2="356.758" y2="62.664"/>
			<path fill="none" stroke="#E8562A" stroke-width="4" stroke-miterlimit="10" stroke-dasharray="13.2531,9.4665" d="
				M356.758,53.198V-20.83c0-44.355,33.006-81.002,75.795-86.723"/>
			<path fill="none" stroke="#E8562A" stroke-width="4" stroke-miterlimit="10" d="M437.261-108.053
				c2.31-0.183,4.643-0.276,6.997-0.276"/>
		</g>
	</g>
	<g>
		<g>
			
				<line fill="none" stroke="#E8562A" stroke-width="4" stroke-miterlimit="10" x1="346.758" y1="52.553" x2="346.758" y2="45.553"/>
			<path fill="none" stroke="#E8562A" stroke-width="4" stroke-miterlimit="10" stroke-dasharray="14.7305,10.5218" d="
				M346.758,35.031V-20.83c0-49.704,37.192-90.72,85.264-96.739"/>
			<path fill="none" stroke="#E8562A" stroke-width="4" stroke-miterlimit="10" d="M437.26-118.082
				c2.312-0.164,4.646-0.247,6.998-0.247"/>
		</g>
	</g>
	<g>
		<g>
			
				<line fill="none" stroke="#E8562A" stroke-width="4" stroke-miterlimit="10" x1="336.758" y1="61.088" x2="336.758" y2="54.088"/>
			<path fill="none" stroke="#E8562A" stroke-width="4" stroke-miterlimit="10" stroke-dasharray="14.6681,10.4772" d="
				M336.758,43.611V-20.83c0-55.239,41.664-100.747,95.282-106.812"/>
			<path fill="none" stroke="#E8562A" stroke-width="4" stroke-miterlimit="10" d="M437.259-128.105
				c2.314-0.148,4.647-0.224,6.999-0.224"/>
		</g>
	</g>
	<g>
		<g>
			<line fill="none" stroke="#E8562A" stroke-width="4" stroke-miterlimit="10" x1="326.758" y1="78.33" x2="326.758" y2="71.33"/>
			<path fill="none" stroke="#E8562A" stroke-width="4" stroke-miterlimit="10" stroke-dasharray="13.7821,9.8443" d="
				M326.758,61.486V-20.83c0-60.874,46.292-110.936,105.593-116.903"/>
			<path fill="none" stroke="#E8562A" stroke-width="4" stroke-miterlimit="10" d="M437.259-138.124
				c2.315-0.136,4.649-0.205,6.999-0.205"/>
		</g>
	</g>
</g>
</svg>
