<?xml version="1.0" encoding="UTF-8" standalone="no"?>
<svg width="38px" height="26px" viewBox="0 0 38 26" version="1.1" xmlns="http://www.w3.org/2000/svg" xmlns:xlink="http://www.w3.org/1999/xlink">
    <!-- Generator: sketchtool 3.6.1 (26313) - http://www.bohemiancoding.com/sketch -->
    <title>upload icon</title>
    <desc>Created with sketchtool.</desc>
    <defs></defs>
    <g id="Welcome" stroke="none" stroke-width="1" fill="none" fill-rule="evenodd">
        <g id="Hello-Bar---Design---Image" transform="translate(-198.000000, -261.000000)" fill="#CCCCCC">
            <g id="Inner-text" transform="translate(75.000000, 10.000000)">
                <g id="upload-an-image" transform="translate(11.000000, 201.000000)">
                    <g id="helipad" transform="translate(0.000000, 21.000000)">
                        <g id="upload-icon" transform="translate(112.000000, 29.000000)">
                            <g id="Layer_1">
                                <path d="M32.935589,11.80816 C32.9486027,11.5856 32.9689041,11.3646 32.9689041,11.13944 C32.9689041,4.98732 27.9768493,0 21.817726,0 C17.3769315,0 13.5535068,2.59948 11.7602192,6.35284 C10.8903836,5.67892 9.80087671,5.27384 8.61506849,5.27384 C5.77443836,5.27384 3.4710137,7.57484 3.4710137,10.41248 C3.4710137,10.94548 3.55221918,11.46028 3.70317808,11.94336 C1.48876712,13.25896 0,15.66604 0,18.42724 C0,22.555 3.31849315,25.90328 7.43550685,25.96672 L7.43550685,25.9714 L7.52347945,25.9714 C7.53389041,25.9714 7.54326027,25.97296 7.55367123,25.97296 C7.56408219,25.97296 7.57345205,25.9714 7.58386301,25.9714 L16.5076164,25.9714 L16.5076164,18.72156 L15.1599178,18.72156 L11.7321096,18.72156 C10.9903288,18.72156 10.7732603,18.25668 11.2490411,17.68884 L17.7699452,9.90808 C18.2462466,9.33972 19.0249863,9.33972 19.5012877,9.90808 L26.0221918,17.68884 C26.4979726,18.2572 26.2809041,18.72156 25.5391233,18.72156 L22.1113151,18.72156 L20.7636164,18.72156 L20.7636164,25.97088 L29.6977808,25.97088 C29.8320822,25.97816 29.9648219,25.99116 30.1006849,25.99116 C34.1776164,25.99116 37.4825753,22.68968 37.4825753,18.61704 C37.4830959,15.54748 35.6049589,12.91836 32.935589,11.80816 L32.935589,11.80816 Z" id="Shape"></path>
                            </g>
                        </g>
                    </g>
                </g>
            </g>
        </g>
    </g>
</svg>