<svg viewBox="0 0 10 16" version="1.1" xmlns="http://www.w3.org/2000/svg" xmlns:xlink="http://www.w3.org/1999/xlink">
    <g id="Hello-Bar-New-Creation-Flow" stroke="none" stroke-width="1">
        <g id="6---Conversion-Default" transform="translate(-448.000000, -811.000000)">
            <g id="if_icon-chevron-right_211647-(1)" transform="translate(453.500000, 819.000000) rotate(90.000000) translate(-453.500000, -819.000000) translate(446.000000, 814.000000)">
                <path d="M9.13963429,5.21082591 L2.94646077,-0.439783542 C2.79089062,-0.579344833 2.79459467,-0.809783242 2.95386887,-0.952590144 L4.06138017,-1.94574723 C4.22065437,-2.08855414 4.47993795,-2.09179975 4.6355081,-1.95223846 L12.1991805,4.951177 C12.2806697,5.02258045 12.3177102,5.11994879 12.3103021,5.21407152 C12.3140061,5.31143987 12.2769656,5.4055626 12.1991805,5.47696605 L4.6355081,12.3771359 C4.47993795,12.5166972 4.22065437,12.5134516 4.06138017,12.3706447 L2.95386887,11.3774876 C2.79459467,11.2346807 2.79089062,11.0042423 2.94646077,10.864681 L9.13963429,5.21082591 Z" id="Shape" transform="translate(7.571645, 5.212449) scale(-1, -1) rotate(-270.000000) translate(-7.571645, -5.212449) "></path>
            </g>
        </g>
    </g>
</svg>
