<?xml version="1.0" encoding="UTF-8"?>
<svg width="28px" height="26px" viewBox="0 0 28 26" version="1.1" xmlns="http://www.w3.org/2000/svg" xmlns:xlink="http://www.w3.org/1999/xlink">
    <!-- Generator: Sketch 50.2 (55047) - http://www.bohemiancoding.com/sketch -->
    <title>Group</title>
    <desc>Created with Sketch.</desc>
    <defs>
        <polygon id="path-1" points="0 0.000464285714 27.8571429 0.000464285714 27.8571429 25.4800929 0 25.4800929"></polygon>
    </defs>
    <g id="Hello-Bar-New-Creation-Flow" stroke="none" stroke-width="1" fill="none" fill-rule="evenodd">
        <g id="1.---Goal" transform="translate(-287.000000, -297.000000)">
            <g id="content" transform="translate(111.000000, 59.000000)">
                <g id="Social-traffic" transform="translate(130.000000, 195.000000)">
                    <g id="Group" transform="translate(46.000000, 43.000000)">
                        <mask id="mask-2" fill="white">
                            <use xlink:href="#path-1"></use>
                        </mask>
                        <g id="Clip-2"></g>
                        <path d="M16.9455,7.11666429 L6.03385714,7.11666429 C5.5315,7.11666429 5.12385714,6.73037857 5.12385714,6.25216429 C5.12385714,5.77580714 5.5315,5.38952143 6.03385714,5.38952143 L16.9455,5.38952143 C17.4469286,5.38952143 17.8545714,5.77580714 17.8545714,6.25216429 C17.8545714,6.73037857 17.4469286,7.11666429 16.9455,7.11666429 M16.9455,11.2488071 L6.03385714,11.2488071 C5.5315,11.2488071 5.12385714,10.8625214 5.12385714,10.3852357 C5.12385714,9.90795 5.5315,9.52166429 6.03385714,9.52166429 L16.9455,9.52166429 C17.4469286,9.52166429 17.8545714,9.90795 17.8545714,10.3852357 C17.8545714,10.8625214 17.4469286,11.2488071 16.9455,11.2488071 M25.2664286,7.62645 C25.4632857,8.21795 25.5663571,8.83359286 25.5663571,9.46687857 C25.5663571,13.7643071 20.7823571,17.2873071 14.7002143,17.62345 C13.8022857,18.4916643 12.6452857,19.39795 11.1827857,20.2020929 C12.3880714,20.5781643 13.7010714,20.8195929 15.0818571,20.8966643 C16.9139286,22.6646643 19.8194286,24.6025929 24.2087857,25.4800929 C24.2087857,25.4800929 21.5298571,23.8727357 21.931,19.83345 C25.4725714,18.4210929 27.8571429,15.7728071 27.8571429,12.7391643 C27.8571429,10.80495 26.8867857,9.02673571 25.2664286,7.62645 M11.8216429,9.28571429e-05 C5.29285714,9.28571429e-05 0,3.66330714 0,8.18359286 C0,8.35352143 0.00742857143,8.52345 0.0222857143,8.69059286 C0.271142857,11.5106643 2.58328571,13.94445 5.92707143,15.2788071 C6.32728571,19.3171643 3.64835714,20.9245214 3.64835714,20.9245214 C8.03771429,20.0470214 10.9432143,18.1100214 12.7752857,16.3410929 C18.8574286,16.0040214 23.6423571,12.4800929 23.6423571,8.18359286 C23.6423571,3.66330714 18.3495,9.28571429e-05 11.8216429,9.28571429e-05" id="Fill-1" fill="#E8562A" mask="url(#mask-2)"></path>
                    </g>
                </g>
            </g>
        </g>
    </g>
</svg>