<?xml version="1.0" encoding="UTF-8"?>
<svg width="34px" height="26px" viewBox="0 0 34 26" version="1.1" xmlns="http://www.w3.org/2000/svg" xmlns:xlink="http://www.w3.org/1999/xlink">
    <!-- Generator: Sketch 50.2 (55047) - http://www.bohemiancoding.com/sketch -->
    <title>Group</title>
    <desc>Created with Sketch.</desc>
    <defs>
        <polygon id="path-1" points="0 0.000565217391 33.9130435 0.000565217391 33.9130435 25.6816451 0 25.6816451"></polygon>
    </defs>
    <g id="Hello-Bar-New-Creation-Flow" stroke="none" stroke-width="1" fill="none" fill-rule="evenodd">
        <g id="1.---Goal" transform="translate(-284.000000, -142.000000)">
            <g id="content" transform="translate(111.000000, 59.000000)">
                <g id="Make-sales" transform="translate(130.000000, 40.000000)">
                    <g id="Group" transform="translate(43.000000, 43.000000)">
                        <mask id="mask-2" fill="white">
                            <use xlink:href="#path-1"></use>
                        </mask>
                        <g id="Clip-2"></g>
                        <path d="M15.7571304,23.7016 C15.2303478,25.1327304 13.7551304,25.9771652 12.4653043,25.5860348 C11.1743478,25.1949043 10.556,23.7162957 11.083913,22.2840348 C11.6106957,20.8517739 13.085913,20.0084696 14.3757391,20.3996 C15.6666957,20.7907304 16.2850435,22.2693391 15.7571304,23.7016 M27.1564348,23.5003826 C26.7212174,24.6839478 25.5037391,25.3802957 24.4388696,25.0569913 C23.3728696,24.7348174 22.861913,23.5139478 23.2971304,22.331513 C23.7334783,21.1479478 24.9509565,20.4516 26.0169565,20.7737739 C27.0829565,21.0970783 27.5927826,22.3179478 27.1564348,23.5003826 M0,1.61064348 C0,0.722121739 0.722347826,-0.000226086957 1.612,-0.000226086957 L7.41113043,-0.000226086957 C7.49591304,-0.000226086957 7.57843478,0.00655652174 7.65982609,0.0189913043 C8.29965217,0.0348173913 8.89652174,0.43386087 9.13165217,1.07255652 L10.7594783,5.48690435 L32.3033043,5.48690435 C33.1918261,5.48690435 33.9130435,6.20812174 33.9130435,7.09777391 C33.9130435,7.98855652 33.1918261,8.70977391 32.3033043,8.70977391 L11.9464348,8.70977391 L12.6427826,10.5964696 L30.7331304,10.5964696 C31.6227826,10.5964696 32.344,11.3188174 32.344,12.2084696 C32.344,13.0981217 31.6227826,13.8193391 30.7331304,13.8193391 L13.8308696,13.8193391 L14.56,15.7976 L28.2913913,15.7976 C29.1810435,15.7976 29.9033913,16.5188174 29.9033913,17.4084696 C29.9033913,18.2981217 29.1810435,19.0193391 28.2913913,19.0193391 L13.4702609,19.0193391 C12.992087,19.0193391 12.5636522,18.8113391 12.2674783,18.4812522 C12.1114783,18.3229913 11.986,18.129687 11.9046087,17.9081217 L6.48982609,3.22151304 L1.612,3.22151304 C0.722347826,3.22151304 0,2.50142609 0,1.61064348" id="Fill-1" fill="#E8562A" mask="url(#mask-2)"></path>
                    </g>
                </g>
            </g>
        </g>
    </g>
</svg>