<?xml version="1.0" encoding="UTF-8"?>
<svg width="27px" height="26px" viewBox="0 0 27 26" version="1.1" xmlns="http://www.w3.org/2000/svg" xmlns:xlink="http://www.w3.org/1999/xlink">
    <!-- Generator: Sketch 50.2 (55047) - http://www.bohemiancoding.com/sketch -->
    <title>Group</title>
    <desc>Created with Sketch.</desc>
    <defs>
        <polygon id="path-1" points="0 0.000268965517 26.8965517 0.000268965517 26.8965517 25.9686207 0 25.9686207"></polygon>
    </defs>
    <g id="Hello-Bar-New-Creation-Flow" stroke="none" stroke-width="1" fill="none" fill-rule="evenodd">
        <g id="1.---Goal" transform="translate(-288.000000, -453.000000)">
            <g id="content" transform="translate(111.000000, 59.000000)">
                <g id="Announcement" transform="translate(130.000000, 350.000000)">
                    <g id="Group" transform="translate(47.000000, 44.000000)">
                        <mask id="mask-2" fill="white">
                            <use xlink:href="#path-1"></use>
                        </mask>
                        <g id="Clip-2"></g>
                        <path d="M25.9695172,-3.55271368e-15 C25.4566897,-3.55271368e-15 25.0415862,0.415103448 25.0415862,0.927931034 L25.0415862,23.1866207 C25.0415862,23.6994483 25.4566897,24.1145517 25.9695172,24.1145517 C26.4814483,24.1145517 26.8965517,23.6994483 26.8965517,23.1866207 L26.8965517,0.927931034 C26.8965517,0.415103448 26.4814483,-3.55271368e-15 25.9695172,-3.55271368e-15 Z M6.43455172,7.41986207 L2.84117241,7.41986207 C2.84117241,7.41986207 6.18401814e-17,7.53551724 6.18401814e-17,10.1444828 L6.18401814e-17,13.7378621 C6.18401814e-17,13.7378621 -0.0582758621,16.7529655 2.72462069,16.7529655 C2.72462069,16.7529655 3.70993103,17.3321379 3.70993103,18.434 L3.70993103,24.9250345 C3.70993103,24.9250345 3.53689655,25.9686207 4.63786207,25.9686207 L6.37627586,25.9686207 C6.37627586,25.9686207 7.42075862,25.7373103 7.42075862,24.9842069 C7.42075862,24.9842069 7.3042069,21.389931 6.60848276,21.389931 C6.60848276,21.389931 8.28951724,19.4766897 6.43455172,18.6070345 C6.43455172,18.6070345 7.36248276,17.3904138 7.36248276,16.6946897 L7.42075862,8.40517241 C7.42075862,8.40517241 7.5937931,7.41986207 6.43455172,7.41986207 Z M24.0849655,1.33317241 C24.0849655,0.289586207 23.1292414,1.44972414 23.1292414,1.44972414 C18.607931,7.94165517 9.27482759,7.41986207 9.27482759,7.41986207 C8.17296552,7.41986207 8.34689655,8.28951724 8.34689655,8.28951724 L8.34689655,15.8250345 C8.34689655,16.6946897 9.3322069,16.6946897 9.3322069,16.6946897 C19.7671724,16.6946897 23.3228966,22.7903448 23.3228966,22.7903448 C23.3228966,22.7903448 24.1432414,23.738 24.0849655,22.7517931 L24.0849655,1.33317241 Z" id="Fill-1" fill="#E8562A" mask="url(#mask-2)"></path>
                    </g>
                </g>
            </g>
        </g>
    </g>
</svg>