<?xml version="1.0" encoding="UTF-8"?>
<svg width="26px" height="26px" viewBox="0 0 26 26" version="1.1" xmlns="http://www.w3.org/2000/svg" xmlns:xlink="http://www.w3.org/1999/xlink">
    <!-- Generator: Sketch 50.2 (55047) - http://www.bohemiancoding.com/sketch -->
    <title>Group</title>
    <desc>Created with Sketch.</desc>
    <defs>
        <polygon id="path-1" points="5.79942035e-05 0.0302913651 25.2744595 0.0302913651 25.2744595 25.2971918 5.79942035e-05 25.2971918"></polygon>
        <polygon id="path-3" points="0.220613514 0.347135135 13.6770189 0.347135135 13.6770189 13.7601486 0.220613514 13.7601486"></polygon>
    </defs>
    <g id="Hello-Bar-New-Creation-Flow" stroke="none" stroke-width="1" fill="none" fill-rule="evenodd">
        <g id="1.---Goal" transform="translate(-158.000000, -297.000000)">
            <g id="content" transform="translate(111.000000, 59.000000)">
                <g id="Get-phone-calls" transform="translate(0.000000, 195.000000)">
                    <g id="Group" transform="translate(47.000000, 43.000000)">
                        <g id="Group-3" transform="translate(0.000000, 0.355673)">
                            <mask id="mask-2" fill="white">
                                <use xlink:href="#path-1"></use>
                            </mask>
                            <g id="Clip-2"></g>
                            <path d="M25.0219784,20.3054378 L19.4681676,17.0333027 C19.1797081,16.8857351 18.7563297,16.9528432 18.5272486,17.1819243 L16.8931135,18.8160595 C16.6643838,19.0447892 16.2118432,19.2352216 15.8878973,19.2390865 C15.8878973,19.2390865 13.7998162,19.2629784 9.91738378,15.3801946 C6.03495135,11.4981135 6.05357297,9.40335676 6.05357297,9.40335676 C6.05638378,9.07941081 6.24646486,8.62687027 6.47519459,8.39814054 L7.86795135,7.00538378 C8.09738378,6.77595135 8.17397838,6.34800541 8.03905946,6.05357297 L4.97527568,0.291410811 C4.84035676,-0.00302162162 4.54205946,-0.056427027 4.31332973,0.171951351 L0.514167568,3.96197838 C0.284735135,4.19035676 0.0619783784,4.64043784 0.0191135135,4.96157297 C0.0191135135,4.96157297 -0.721886486,10.499573 7.03770811,18.2595189 C14.7980054,26.0194649 20.3356541,25.2781135 20.3356541,25.2781135 C20.6567892,25.2348973 21.1068703,25.0124919 21.3356,24.7837622 L25.1301946,20.9891676 C25.3589243,20.7604378 25.3104378,20.4523027 25.0219784,20.3054378" id="Fill-1" fill="#E8562A" mask="url(#mask-2)"></path>
                        </g>
                        <path d="M11.4638919,10.2722486 C12.277973,10.4756811 13.0498919,10.890627 13.6861892,11.5269243 C14.3263514,12.1674378 14.7423514,12.944627 14.9447297,13.7639784 L16.4959459,13.7639784 C16.335027,12.4945459 15.7679459,11.3210324 14.8533784,10.4029514 C13.9286216,9.47327568 12.7438649,8.90057297 11.4638919,8.74703243 L11.4638919,10.2722486 Z" id="Fill-4" fill="#E8562A"></path>
                        <g id="Group-8" transform="translate(11.243243, 0.004322)">
                            <mask id="mask-4" fill="white">
                                <use xlink:href="#path-3"></use>
                            </mask>
                            <g id="Clip-7"></g>
                            <path d="M11.8531541,13.7601486 L13.6770189,13.7597973 C13.5442081,6.80268919 7.18088378,0.452716216 0.220964865,0.346959459 L0.220613514,2.13006757 C6.46166757,2.47685135 11.4789649,7.49941892 11.8531541,13.7601486" id="Fill-6" fill="#E8562A" mask="url(#mask-4)"></path>
                        </g>
                        <path d="M18.8853108,13.7641541 L20.7123378,13.7645054 C20.3462297,8.81607297 16.3931757,4.8581 11.4637162,4.51799189 L11.4637162,6.35942432 C15.3893649,6.69250541 18.5279865,9.83007297 18.8853108,13.7641541" id="Fill-9" fill="#E8562A"></path>
                    </g>
                </g>
            </g>
        </g>
    </g>
</svg>