<?xml version="1.0" encoding="UTF-8"?>
<svg width="39px" height="39px" viewBox="0 0 39 39" version="1.1" xmlns="http://www.w3.org/2000/svg" xmlns:xlink="http://www.w3.org/1999/xlink">
    <!-- Generator: Sketch 50.2 (55047) - http://www.bohemiancoding.com/sketch -->
    <title>Fill 1</title>
    <desc>Created with Sketch.</desc>
    <defs></defs>
    <g id="Hello-Bar-New-Creation-Flow" stroke="none" stroke-width="1" fill="none" fill-rule="evenodd">
        <g id="1.---Goal" transform="translate(-27.000000, -82.000000)" fill="#666666">
            <g id="menu-items" transform="translate(0.000000, 82.000000)">
                <g id="Goal" transform="translate(27.000000, 0.000000)">
                    <g id="Page-1">
                        <path d="M31.565625,17.808375 C31.4172083,17.9817083 31.2606667,18.10575 31.0857083,18.2222083 L25.5932083,21.8465 C25.50275,21.8844167 25.3472917,22.156875 25.3602917,22.3491667 C25.3602917,22.4017083 25.3684167,22.4450417 25.3787083,22.4742917 L27.79075,29.5511667 C27.8627917,29.77 27.91425,29.9774583 27.9164167,30.2342083 C27.9137083,30.4324583 27.8887917,30.6984167 27.6797083,30.9898333 C27.48525,31.2769167 27.0876667,31.448625 26.8038333,31.448625 C26.791375,31.448625 26.7772917,31.4480833 26.7642917,31.4475417 C26.2123333,31.41775 25.9805,31.2059583 25.699375,31.0012083 L20.01025,26.3677917 C19.9658333,26.329875 19.86075,26.2854583 19.7377917,26.2865417 C19.6115833,26.2854583 19.4989167,26.3336667 19.4545,26.3742917 L14.0573333,30.9714167 C13.7772917,31.182125 13.54275,31.4052917 12.9783333,31.4361667 C12.6804167,31.4545833 12.2438333,31.265 12.0472083,30.96275 C11.844625,30.668625 11.8207917,30.407 11.8180833,30.2055 C11.8191667,29.9655417 11.864125,29.7694583 11.92425,29.5663333 L14.0703333,22.5344167 C14.0800833,22.5035417 14.0860417,22.4618333 14.0860417,22.4114583 C14.10175,22.20725 13.9284167,21.9012083 13.8298333,21.8595 L8.30970833,18.221125 C8.13583333,18.1046667 7.97983333,17.9817083 7.83141667,17.808375 C7.691125,17.6366667 7.51941667,17.389125 7.51129167,16.9834167 C7.50641667,16.7304583 7.6115,16.446625 7.76641667,16.2640833 C7.91970833,16.0772083 8.09033333,15.9759167 8.23820833,15.9092917 C8.53666667,15.7841667 8.78258333,15.7662917 9.04745833,15.7630417 L15.897375,15.7587083 C15.96075,15.7625 16.1075417,15.72025 16.228875,15.624375 C16.3534583,15.5322917 16.433625,15.4028333 16.4477083,15.3394583 L18.4312917,8.21329167 C18.4946667,7.98904167 18.5677917,7.78483333 18.71675,7.56220833 C18.8521667,7.36179167 19.1549583,7.03083333 19.6971667,7.01891667 C20.241,7.03191667 20.5410833,7.362875 20.6765,7.56220833 C20.8265417,7.78320833 20.899125,7.98525 20.964125,8.21004167 L22.94825,15.34 C22.9623333,15.4028333 23.0425,15.5322917 23.166,15.624375 C23.287875,15.72025 23.4346667,15.7625 23.4985833,15.7587083 L30.3479583,15.7630417 C30.5462083,15.7635833 30.7357917,15.7782083 30.9437917,15.8334583 C31.1458333,15.8935833 31.3955417,15.98675 31.6300833,16.2657083 C31.783375,16.44825 31.889,16.7304583 31.884125,16.9834167 C31.876,17.389125 31.7048333,17.636125 31.565625,17.808375 M19.5,0 C8.73058333,0 0,8.73004167 0,19.5 C0,30.2699583 8.73058333,39 19.5,39 C30.268875,39 39,30.2699583 39,19.5 C39,8.73004167 30.268875,0 19.5,0" id="Fill-1"></path>
                    </g>
                </g>
            </g>
        </g>
    </g>
</svg>