<?xml version="1.0" encoding="UTF-8"?>
<svg width="34px" height="39px" viewBox="0 0 34 39" version="1.1" xmlns="http://www.w3.org/2000/svg" xmlns:xlink="http://www.w3.org/1999/xlink">
    <!-- Generator: Sketch 50.2 (55047) - http://www.bohemiancoding.com/sketch -->
    <title>Page 1</title>
    <desc>Created with Sketch.</desc>
    <defs></defs>
    <g id="Hello-Bar-New-Creation-Flow" stroke="none" stroke-width="1" fill="none" fill-rule="evenodd">
        <g id="5---Targeting" transform="translate(-29.000000, -495.000000)" fill="#666666">
            <g id="menu-items" transform="translate(0.000000, 82.000000)">
                <g id="Targeting" transform="translate(16.000000, 413.000000)">
                    <g id="Page-1" transform="translate(13.000000, 0.000000)">
                        <path d="M23.6237777,27.6488823 L23.6205332,27.6888975 L23.6199924,27.6888975 L23.6237777,27.6488823 Z M23.4485756,25.7924977 L23.4485756,25.7908755 L24.0579975,25.7908755 L23.4485756,25.7924977 Z M9.97856715,26.0017668 L10.0191232,25.7908755 L10.0212862,25.7908755 L9.97856715,26.0017668 Z M9.27559601,27.6888975 L9.85095085,27.687816 L9.85095085,27.6888975 L9.27559601,27.6888975 Z M28.8414458,28.6249306 C28.7733116,28.882867 28.6830069,29.1299884 28.5721537,29.3630503 C28.1784899,30.1893118 27.5101266,30.9587948 26.5854492,31.650951 C25.6050748,32.3836632 24.3910977,32.9909222 22.9770442,33.4554239 C21.474849,33.9496666 19.8304373,34.2551887 18.0892318,34.3644196 L17.9589118,30.4980784 L17.9583711,30.4764485 L17.9362004,30.4764485 L15.5455578,30.4764485 L15.5239279,30.4764485 L15.5228464,30.4980784 L15.4033413,34.3709086 C13.6496987,34.2692481 11.9906868,33.9685928 10.4722692,33.476513 C9.04415628,33.014715 7.81720127,32.4074561 6.82601197,31.6720402 C5.89051961,30.9771802 5.21404508,30.2049935 4.81443302,29.3754875 C4.69979465,29.1359366 4.60678616,28.8812447 4.53865204,28.6189824 C4.53757054,28.6141157 4.53757054,28.6103305 4.5359483,28.6065452 L4.53757054,28.6054638 L4.53540756,28.560041 C4.53378531,28.50867 4.53270382,28.4572991 4.53270382,28.4059281 C4.53270382,28.4059281 4.53378531,28.3929502 4.53378531,28.3810537 L4.53378531,28.3556386 C4.53378531,28.3556386 4.53432606,28.3486089 4.53432606,28.3415792 C4.53486681,28.3340087 4.53540756,28.326979 4.53540756,28.326979 L4.5359483,28.2972379 C4.53648905,28.2729043 4.53757054,28.2507337 4.53757054,28.2269408 C4.54081503,28.1685402 4.545141,28.1095987 4.55108922,28.0490351 C4.55108922,28.0490351 4.55217071,28.0409239 4.55271146,28.0311904 C4.55379295,28.0230792 4.55487445,28.0133458 4.55487445,28.0133458 C4.56244491,27.9560266 4.56731163,27.9133076 4.57325985,27.8711293 C4.58083031,27.8175953 4.59002301,27.7640614 4.5992157,27.7116089 L9.85095085,27.7116089 L9.87582521,27.7116089 L9.87420297,27.687816 L10.0434568,25.7952014 L10.0488643,25.7687048 L10.0212862,25.7687048 L5.4925298,25.7687048 L5.52173014,25.7281488 C5.55741944,25.6838076 5.5914865,25.6389256 5.62771655,25.5945843 C5.66124287,25.5540283 5.69585068,25.51185 5.72991774,25.4718347 C5.774259,25.4215452 5.81211129,25.3782855 5.84996358,25.334485 C5.8916011,25.2906845 5.93323862,25.244721 5.97649839,25.1992982 C6.01813591,25.1560385 6.06247716,25.1111565 6.10627767,25.0673559 C6.13493727,25.0403186 6.16467835,25.0111183 6.19333795,24.9824587 L6.19387869,24.9824587 L6.21821231,24.9597473 L6.24092368,24.9370359 C6.28634643,24.8953984 6.33230993,24.8521386 6.37989567,24.8099604 C6.43288888,24.7634561 6.48642284,24.7164111 6.53941604,24.6693661 C6.59457224,24.6234026 6.64972844,24.5768984 6.70650688,24.5314756 C6.70650688,24.5314756 6.71461808,24.5260682 6.72327003,24.5195792 C6.73300348,24.5120087 6.74003319,24.5044383 6.74003319,24.5044383 C6.78599669,24.4692897 6.83033795,24.4336004 6.87738294,24.3984519 C6.93524287,24.3541106 6.9931028,24.3103101 7.05204423,24.2665096 C7.12558582,24.2129756 7.20020891,24.1610639 7.27645424,24.109693 C7.27645424,24.109693 7.28564694,24.1021225 7.29646188,24.0961743 C7.30673608,24.0896853 7.31646952,24.0821149 7.31646952,24.0821149 C7.39001112,24.0329069 7.44733031,23.9945138 7.50464949,23.9572023 C7.58251706,23.9069128 7.66038463,23.8571641 7.74095594,23.8084969 L7.87019448,23.733333 L7.89615034,23.7171106 L7.93292114,23.69494 L7.95887699,23.6797991 L7.98266986,23.6668211 C8.12650857,23.5835461 8.27359177,23.5013525 8.42500093,23.4245665 L8.47420891,23.4002329 L8.52179465,23.3769807 C8.56180993,23.3553508 8.60182521,23.3364247 8.64129975,23.3164171 L8.6775298,23.2991132 L8.74296019,23.2655868 C8.78838294,23.2428755 8.83542793,23.2196233 8.88247292,23.196912 C8.9673702,23.1579782 9.05334898,23.1206666 9.13878701,23.0822736 L9.20692114,23.0525325 L9.24747716,23.0341471 L9.28803319,23.0157617 L9.33886341,22.9930503 C9.51730993,22.916805 9.68007479,22.8519154 9.84608413,22.7891887 L9.93584813,22.7556624 L9.96396698,22.7443067 C9.99911553,22.7318695 10.0326419,22.7183508 10.0672497,22.7069952 L10.1175391,22.6875283 L10.2159551,22.651839 C10.3403269,22.6074977 10.4668617,22.5653194 10.5933965,22.5231412 L10.6723456,22.4993483 L10.7264203,22.4809629 L10.8221325,22.4517626 L10.8972963,22.4279697 L10.9778677,22.4025546 C11.1071062,22.3641615 11.2374262,22.32685 11.3677463,22.2906199 L11.4445323,22.2716938 L11.4942811,22.2581751 C11.5526817,22.2430342 11.6121639,22.2278933 11.6711053,22.2127524 L11.7451877,22.1932855 C11.7998031,22.1786853 11.8544186,22.1646259 11.909034,22.1527295 C12.009613,22.1273143 12.1112734,22.104603 12.2123931,22.0829731 L12.2670086,22.0705359 L12.3248685,22.057558 L12.3811062,22.0445801 L12.4076028,22.0386318 L12.4081435,22.0386318 L12.4611368,22.0267354 C12.646613,21.9872609 12.8353337,21.9521123 13.0235137,21.9175045 L13.0819143,21.9088525 L13.1408558,21.8991191 L13.3171393,21.8699188 L13.3933846,21.8574816 C13.4604373,21.8472074 13.5274899,21.835311 13.5961648,21.824496 C13.6994475,21.8098958 13.8038116,21.7947549 13.9076351,21.781777 L13.9773914,21.7720435 L14.0439033,21.7639323 L14.0703999,21.7606879 L14.0968965,21.7574434 L14.1379933,21.7531174 L14.2228906,21.741221 C14.328877,21.7298653 14.4354042,21.7179688 14.5408498,21.7071539 C14.6468362,21.6968797 14.7549857,21.6866055 14.8615128,21.6774128 L14.9031503,21.6741683 L14.9442471,21.6709239 L15.1064712,21.6574052 C15.188124,21.6519977 15.2703176,21.6460495 15.3525111,21.6411828 C15.3779262,21.6401013 15.4038821,21.638479 15.4303787,21.6368568 L15.7050782,27.0205342 L17.8485994,27.0205342 L18.1238396,21.6476717 L18.2687598,21.6574052 L18.4920884,21.6741683 C18.56563,21.6817388 18.6397123,21.6882278 18.7132539,21.694176 L18.9392862,21.7168874 C19.0149907,21.7249986 19.0890731,21.7336505 19.1642369,21.7423025 L19.3643133,21.7671768 C19.3632318,21.7671768 19.3881062,21.7704213 19.3881062,21.7704213 C19.4621885,21.779614 19.5357301,21.7898882 19.6098125,21.7996216 C19.6893023,21.8109773 19.7677106,21.822333 19.8466597,21.8342295 C19.925068,21.8455851 20.0034763,21.8585631 20.0818846,21.8710003 L20.1700264,21.8856004 L20.2116639,21.8926301 L20.2419458,21.8985784 L20.2787166,21.9045266 L20.3149466,21.9104748 C20.3928142,21.9239935 20.4696003,21.9375121 20.5469271,21.9531938 C20.6339874,21.9683347 20.7199661,21.9861794 20.8059449,22.0029425 C20.8913829,22.0207872 20.9773617,22.0386318 21.0627997,22.0570172 C21.147697,22.0759434 21.2331351,22.0954103 21.3174916,22.1143364 C21.4023889,22.1338033 21.4856639,22.153811 21.5705612,22.1743593 C21.6684364,22.1992337 21.7652301,22.2241081 21.8625646,22.2506047 C21.9858549,22.281968 22.0891376,22.3106276 22.1913388,22.3403687 C22.2940807,22.3690283 22.3952004,22.3987694 22.4963201,22.4301327 L22.5655357,22.4517626 L22.6266402,22.4717702 L22.6493515,22.4777184 L22.6753074,22.4858296 L22.7326266,22.504215 L22.7975162,22.5253042 C22.8337463,22.5372006 22.8694356,22.5501785 22.9056656,22.5636972 C22.934866,22.5750529 22.9640663,22.5858678 22.9948889,22.5966828 C23.1938838,22.6642761 23.390175,22.7340325 23.5826809,22.8097371 C23.6810969,22.8475894 23.7768091,22.8865232 23.8736028,22.9259977 L23.9731003,22.9654722 C24.0244712,22.9865614 24.0763829,23.0054875 24.1261317,23.0276581 C24.1818286,23.0525325 24.2359033,23.0784884 24.2888965,23.1039035 L24.4008312,23.1558152 C24.42895,23.1698746 24.4581503,23.1801488 24.4862692,23.1936675 C24.5181733,23.2071862 24.5495366,23.2212456 24.5803592,23.2347643 C24.5976631,23.2428755 24.6133447,23.2526089 24.6290264,23.2618016 C24.6468711,23.2688313 24.6630935,23.2785648 24.6809381,23.2872167 C24.8566809,23.3737362 25.0383719,23.4694485 25.2379076,23.5808424 L25.3211826,23.6257244 C25.3601164,23.6451913 25.3995909,23.6668211 25.4369025,23.688451 C25.6818609,23.8306675 25.9149228,23.9777507 26.1295994,24.1248339 L26.1512293,24.1388933 C26.166911,24.150249 26.1815111,24.1626862 26.1961113,24.1745826 C26.2112522,24.1859383 26.2258524,24.197294 26.241534,24.2091904 C26.384832,24.3119323 26.5286707,24.4135928 26.6622352,24.5201199 C26.6806206,24.5347201 26.696843,24.5493203 26.7130654,24.5644612 C26.7287471,24.5779799 26.7444288,24.5931208 26.7606512,24.6060987 C26.8168889,24.652603 26.8704228,24.7012702 26.9239568,24.7488559 L26.9661351,24.7861675 C27.0980773,24.9024281 27.2213677,25.020311 27.3349245,25.1354901 C27.3516877,25.1522532 27.3700731,25.1679349 27.3889992,25.1857795 C27.4079254,25.2041649 27.4268515,25.2214688 27.4457777,25.240395 C27.4863337,25.2836548 27.5247267,25.3290775 27.5636605,25.3734188 L27.6063795,25.422086 L27.6361206,25.4556123 L27.6761359,25.5010351 C27.7496775,25.5886361 27.8194339,25.6784001 27.8870272,25.7687048 L23.4485756,25.7687048 L23.4209975,25.7687048 L23.4258643,25.7952014 L23.5972811,27.6872753 L23.5956588,27.7116089 L23.6199924,27.7116089 L28.7830451,27.7116089 C28.802512,27.8154323 28.8171121,27.9203373 28.8284678,28.0230792 C28.8398235,28.1333916 28.8457717,28.2447855 28.8484755,28.3550979 C28.849557,28.4454026 28.8457717,28.5351666 28.8414458,28.6249306 Z M15.4265935,34.3833458 L15.4249712,34.3833458 L15.4341639,34.0718755 L15.4265935,34.3833458 Z M13.409607,6.63545272 C12.4611368,6.28450789 12.0150205,5.12839075 12.4130103,4.05230416 C12.8110001,2.97459533 13.9016868,2.38680331 14.8501571,2.73720739 C15.7991682,3.08761146 16.2452845,4.24426935 15.8472947,5.32143744 C15.4493048,6.39698328 14.3580773,6.98639754 13.409607,6.63545272 Z M32.7921435,26.3278373 C32.2486928,25.2138984 31.3586232,24.1816123 30.1451868,23.2601794 C29.0728855,22.4458143 27.7745519,21.7358135 26.2853346,21.1507252 C24.8875035,20.6029485 23.3550264,20.1784621 21.7333261,19.8902439 C20.5972166,19.689086 19.4237955,19.5614697 18.2330705,19.4998245 L18.5488668,13.3304417 C21.4510561,12.5636624 23.5951181,9.92643913 23.5951181,6.78199516 C23.5951181,3.03678124 20.5588235,-5.40747029e-05 16.8130688,-5.40747029e-05 C13.0678549,-5.40747029e-05 10.0315604,3.03678124 10.0315604,6.78199516 C10.0315604,9.90048328 12.139933,12.5198619 15.0053515,13.3120563 L15.3211478,19.4890096 C14.0703999,19.5463288 12.8402004,19.6793525 11.6494755,19.8902439 C10.0277751,20.1779213 8.49529805,20.6029485 7.09692623,21.1507252 C5.60824966,21.7358135 4.30991604,22.4458143 3.23761469,23.2601794 C2.02525985,24.1826938 1.13410874,25.2138984 0.589576486,26.3278373 C0.016384635,27.5012583 -0.138269015,28.7065834 0.123452547,29.9113678 C0.121830306,29.9135308 0.118585823,29.9135308 0.118585823,29.9146123 C0.118585823,29.917316 0.118585823,29.9183975 0.11912657,29.9205605 L0.205646095,30.3185503 L0.291624873,30.7046437 C0.33758837,30.9204018 0.40139652,31.1399451 0.484130815,31.377333 L0.49224202,31.4016666 L0.502516214,31.4324892 C0.575517063,31.6358101 0.664199576,31.8423755 0.773430475,32.0662447 L0.787489898,32.0959858 L0.81074202,32.1441123 C0.912943209,32.3468924 1.03298905,32.5561615 1.16871655,32.7681344 L1.19088718,32.8027422 L1.2244135,32.8546539 C1.35419278,33.0531081 1.50235747,33.2553475 1.66404083,33.4559646 L1.68567071,33.483002 L1.73163421,33.5408619 C1.89331757,33.7387753 2.07338633,33.938311 2.26643302,34.1356836 C2.2972556,34.1675877 2.32699669,34.1973288 2.35890076,34.2286921 C2.55627343,34.425524 2.76500178,34.6191115 2.97859686,34.799721 L3.03267156,34.8440622 L3.06836087,34.8743441 C3.30683031,35.073339 3.55449244,35.2636819 3.80269533,35.4405062 L3.85947377,35.4805215 L3.88651112,35.4983661 C4.16824032,35.697361 4.44239907,35.8747261 4.72304677,36.0439799 C4.80469958,36.0926471 4.88797462,36.1396921 4.97016817,36.1872778 L5.00045,36.2045817 L5.06804338,36.2440563 C5.11130314,36.2683899 5.15510365,36.2943458 5.2005264,36.3192201 C5.54390076,36.5090223 5.91323098,36.6966615 6.29499839,36.8734858 L6.32203574,36.885923 L6.37827343,36.9113381 C6.75084813,37.0811327 7.13099329,37.2417346 7.50951621,37.386114 L7.54033879,37.3969289 L7.59279126,37.4163958 C7.99078107,37.567805 8.40877852,37.711103 8.83650942,37.8441267 L8.88030993,37.8560232 L8.92465119,37.8695419 C9.35616732,38.0014841 9.80228362,38.1220707 10.2500222,38.2302201 L10.3149118,38.2469833 C10.8075323,38.3632439 11.2936639,38.4649043 11.7770918,38.5498016 L11.7998031,38.5535868 C12.0512505,38.5979281 12.3016164,38.6271284 12.5514415,38.6638992 C12.5671232,38.6660622 12.5801011,38.6676845 12.595242,38.6703882 C12.8450671,38.707159 13.0965145,38.7509595 13.3479619,38.7807006 C13.3739177,38.7844858 13.3998736,38.7861081 13.4263702,38.7893525 C13.9362947,38.848294 14.4548711,38.8926352 14.9691215,38.9223763 L15.051315,38.9267023 C15.607203,38.9580656 16.1582242,38.9737473 16.6914008,38.9737473 C16.966641,38.9737473 17.2418812,38.9580656 17.518203,38.9499544 C17.5290179,38.9494137 17.5409143,38.9494137 17.5517293,38.9494137 C17.8221028,38.9413025 18.0935578,38.9413025 18.3617683,38.9261615 L18.3898872,38.9245393 C18.9133303,38.8942575 19.4427216,38.8493755 19.961298,38.7893525 L20.0272692,38.7817821 C20.5177267,38.7233814 21.0179177,38.6520028 21.5137828,38.5654833 L21.6370731,38.5433126 C22.1221232,38.4567931 22.5898694,38.3594587 23.0430154,38.25185 L23.0830306,38.2421166 L23.1246682,38.2329239 C23.5556435,38.1301819 23.9952709,38.0090546 24.4300315,37.8771123 C24.4922174,37.8581862 24.5538626,37.8381785 24.6138855,37.8181709 L24.751776,37.7732889 C25.0837947,37.6673025 25.3747166,37.5667235 25.6456308,37.4672261 C25.7802768,37.4163958 25.9116784,37.3661064 26.0441614,37.3136539 C26.3069644,37.210912 26.5713897,37.0995181 26.8304076,36.9837982 L26.9093566,36.9491904 C26.9980391,36.9102566 27.0878031,36.8707821 27.1732412,36.8307668 C27.5117488,36.6723279 27.8329525,36.5084816 28.1260374,36.3484205 C28.248787,36.2813678 28.3682921,36.2132337 28.4856342,36.1461811 L28.5521461,36.1067065 L28.6478583,36.0504688 C28.8279271,35.9428602 29.0031291,35.8330885 29.1729237,35.7222354 L29.1923906,35.7092575 C29.3675926,35.5924561 29.5373872,35.4734918 29.7028558,35.3512829 L29.7531452,35.3150529 L29.7839678,35.29126 C29.97377,35.150125 30.1635722,35.0008789 30.3463447,34.846766 L30.3787896,34.8208101 L30.4323235,34.7764688 C30.61077,34.6239782 30.7886758,34.4601318 30.9627963,34.2903373 L31.0330935,34.2189587 L31.0622938,34.1908398 C31.2255994,34.025912 31.3678159,33.8734213 31.4986767,33.7230936 L31.519225,33.7003823 L31.5408549,33.6760486 C31.6738787,33.519232 31.8052802,33.3537634 31.9415485,33.1655834 C31.9756155,33.1185385 32.0113048,33.0714935 32.0442904,33.023367 C32.0805205,32.9714553 32.115669,32.9211658 32.1497361,32.8676318 C32.1929958,32.8043644 32.2340926,32.7394748 32.2735671,32.6745851 C32.3049305,32.6248364 32.3362938,32.5740062 32.3654941,32.5247982 C32.4060502,32.4566641 32.4439025,32.3858262 32.4822955,32.3166106 C32.5136588,32.2571284 32.5358295,32.2149502 32.5585408,32.1733126 C32.5980154,32.0970673 32.6326232,32.0219035 32.6683125,31.9456581 L32.6877794,31.9051021 C32.6996758,31.8769833 32.7137352,31.8499459 32.7256317,31.8212863 C32.7737581,31.7142184 32.8170179,31.6055283 32.8575739,31.4968381 L32.8759593,31.4422227 L32.8905595,31.4022074 C32.9208413,31.3162286 32.9495009,31.2313313 32.9759975,31.1458933 L32.9851902,31.1112855 L33.0035756,31.0501811 C33.0360205,30.9360834 33.0673838,30.8214451 33.0917174,30.7046437 L33.1755332,30.3212541 L33.259349,29.9373237 L33.2539415,29.9367829 C33.2555638,29.9335385 33.2555638,29.9308347 33.2561045,29.9270495 C33.2577267,29.923805 33.2631342,29.923805 33.2631342,29.9205605 C33.263675,29.9178568 33.2642157,29.9156938 33.2642157,29.9140716 C33.2642157,29.9113678 33.2604305,29.9113678 33.259349,29.9102863 C33.519989,28.6963093 33.3647947,27.4985546 32.7921435,26.3278373 Z" id="Fill-1"></path>
                    </g>
                </g>
            </g>
        </g>
    </g>
</svg>