<?xml version="1.0" encoding="UTF-8"?>
<svg width="60px" height="42px" viewBox="0 0 60 42" version="1.1" xmlns="http://www.w3.org/2000/svg" xmlns:xlink="http://www.w3.org/1999/xlink">
    <!-- Generator: Sketch 50.2 (55047) - http://www.bohemiancoding.com/sketch -->
    <title>if_window_application_107184</title>
    <desc>Created with Sketch.</desc>
    <defs></defs>
    <g id="Hello-Bar-New-Creation-Flow" stroke="none" stroke-width="1" fill="none" fill-rule="evenodd">
        <g id="2.1---Type-with-selection" transform="translate(-141.000000, -501.000000)">
            <g id="content" transform="translate(111.000000, 59.000000)">
                <g id="Slider" transform="translate(0.000000, 402.000000)">
                    <g id="if_window_application_107184" transform="translate(31.000000, 41.000000)">
                        <path d="M57.9816842,36.4569231 C57.9816842,38.1507692 56.608,39.5338462 54.9290526,39.5338462 L3.79594737,39.5338462 C2.117,39.5338462 0.743315789,38.1507692 0.743315789,36.4569231 L0.743315789,3.81230769 C0.743315789,2.12 2.117,0.735384615 3.79594737,0.735384615 L54.9290526,0.735384615 C56.608,0.735384615 57.9816842,2.12 57.9816842,3.81230769 L57.9816842,36.4569231 Z" id="Shape" stroke="#666666" stroke-width="1.53846154"></path>
                        <path d="M1.24547368,8.58 L57.5634737,8.58" id="Shape" stroke="#666666" stroke-width="1.53846154"></path>
                        <ellipse id="Oval" stroke="#666666" stroke-width="1.53846154" fill="#666666" fill-rule="nonzero" cx="5.65957895" cy="4.74153846" rx="1" ry="1"></ellipse>
                        <ellipse id="Oval" stroke="#666666" stroke-width="1.53846154" fill="#666666" fill-rule="nonzero" cx="9.55168421" cy="4.7" rx="1" ry="1"></ellipse>
                        <ellipse id="Oval" stroke="#666666" stroke-width="1.53846154" fill="#666666" fill-rule="nonzero" cx="13.4636316" cy="4.72" rx="1" ry="1"></ellipse>
                        <circle id="Oval-2" fill="#E8562A" cx="51.5" cy="33" r="4"></circle>
                        <rect id="Rectangle" fill="#E8562A" x="33.5" y="17" width="22" height="11" rx="1.5"></rect>
                    </g>
                </g>
            </g>
        </g>
    </g>
</svg>