<?xml version="1.0" encoding="UTF-8" standalone="no"?>
<!-- Generator: Adobe Illustrator 19.1.0, SVG Export Plug-In . SVG Version: 6.00 Build 0)  -->

<svg
   xmlns:dc="http://purl.org/dc/elements/1.1/"
   xmlns:cc="http://creativecommons.org/ns#"
   xmlns:rdf="http://www.w3.org/1999/02/22-rdf-syntax-ns#"
   xmlns:svg="http://www.w3.org/2000/svg"
   xmlns="http://www.w3.org/2000/svg"
   xmlns:sodipodi="http://sodipodi.sourceforge.net/DTD/sodipodi-0.dtd"
   xmlns:inkscape="http://www.inkscape.org/namespaces/inkscape"
   version="1.1"
   id="Layer_1"
   x="0px"
   y="0px"
   viewBox="0 0 100 60"
   xml:space="preserve"
   inkscape:version="0.91 r13725"
   sodipodi:docname="sent.svg"
   width="100"
   height="60"><metadata
     id="metadata3746"><rdf:RDF><cc:Work
         rdf:about=""><dc:format>image/svg+xml</dc:format><dc:type
           rdf:resource="http://purl.org/dc/dcmitype/StillImage" /><dc:title></dc:title></cc:Work></rdf:RDF></metadata><defs
     id="defs3744" /><sodipodi:namedview
     pagecolor="#ffffff"
     bordercolor="#666666"
     borderopacity="1"
     objecttolerance="10"
     gridtolerance="10"
     guidetolerance="10"
     inkscape:pageopacity="0"
     inkscape:pageshadow="2"
     inkscape:window-width="1840"
     inkscape:window-height="1071"
     id="namedview3742"
     showgrid="false"
     inkscape:zoom="7.9285714"
     inkscape:cx="53.918919"
     inkscape:cy="36.41579"
     inkscape:window-x="0"
     inkscape:window-y="0"
     inkscape:window-maximized="0"
     inkscape:current-layer="Layer_1"
     inkscape:snap-bbox="false" /><style
     type="text/css"
     id="style3562">
	.st0{fill:#54D388;}
	.st1{fill:#929292;}
	.st2{display:none;}
	.st3{display:inline;fill:#FFFFFF;}
	.st4{fill:#FFFFFF;}
	.st5{fill:#C6C6C6;}
</style><g
     class="st2"
     id="g3684"
     style="display:none"
     transform="translate(0,-10)"><path
       class="st3"
       d="m 182.3,11.9 3,-2.1 c 0,0 0,0 -0.1,0 l -5.9,0 c 0,0 0,0 -0.1,0 l 3.1,2.1 z"
       id="path3686"
       inkscape:connector-curvature="0"
       style="display:inline;fill:#ffffff" /><path
       class="st3"
       d="m 182.2,12.9 -3.5,-2.4 0,3.9 c 0,0.3 0.3,0.6 0.6,0.6 l 5.9,0 c 0.3,0 0.6,-0.3 0.6,-0.6 l 0,-3.9 -3.6,2.4 z"
       id="path3688"
       inkscape:connector-curvature="0"
       style="display:inline;fill:#ffffff" /></g><g
     class="st2"
     id="g3698"
     style="display:none"
     transform="translate(0,-10)"><path
       class="st3"
       d="m 125.8,11.9 3,-2.1 c 0,0 0,0 -0.1,0 l -5.9,0 c 0,0 0,0 -0.1,0 l 3.1,2.1 z"
       id="path3700"
       inkscape:connector-curvature="0"
       style="display:inline;fill:#ffffff" /><path
       class="st3"
       d="m 125.7,12.9 -3.5,-2.4 0,3.9 c 0,0.3 0.3,0.6 0.6,0.6 l 5.9,0 c 0.3,0 0.6,-0.3 0.6,-0.6 l 0,-3.9 -3.6,2.4 z"
       id="path3702"
       inkscape:connector-curvature="0"
       style="display:inline;fill:#ffffff" /></g><g
     id="g3730"
     transform="translate(67.603604,-39.765766)"><path
       style="fill:#929292"
       inkscape:connector-curvature="0"
       id="path3732"
       d="m 88.8,32 c -1.5,0 -2.7,1.1 -2.9,2.5 l -1.6,0 c -0.3,-3.9 -3.5,-7 -7.5,-7 -4,0 -7.2,3.1 -7.5,7 l -1.6,0 C 67.5,33.1 66.2,32 64.8,32 c -1.7,0 -3,1.3 -3,3 0,1.7 1.3,3 3,3 1.5,0 2.7,-1.1 2.9,-2.5 l 1.6,0 c 0.3,3.9 3.5,7 7.5,7 4,0 7.2,-3.1 7.5,-7 l 1.6,0 c 0.2,1.4 1.5,2.5 2.9,2.5 1.7,0 3,-1.3 3,-3 0,-1.7 -1.4,-3 -3,-3 z m -12,9.5 c -3.6,0 -6.5,-2.9 -6.5,-6.5 0,-3.6 2.9,-6.5 6.5,-6.5 3.6,0 6.5,2.9 6.5,6.5 0,3.6 -3,6.5 -6.5,6.5 z m 12,-4.5 c -1.1,0 -2,-0.9 -2,-2 0,-1.1 0.9,-2 2,-2 1.1,0 2,0.9 2,2 0,1.1 -0.9,2 -2,2 z"
       class="st1" /><path
       style="fill:#929292"
       inkscape:connector-curvature="0"
       id="path3734"
       d="m 80.2,33.3 c -1.2,0 -2.1,1 -2.1,2.1 l 0,1.2 c 0,0.7 -0.6,1.3 -1.3,1.3 -0.3,0 -0.6,-0.1 -0.8,-0.3 l -0.1,-0.1 c -0.1,-0.1 -0.2,-0.2 -0.2,-0.4 0.9,0 1.7,-0.8 1.7,-1.7 l 0,-2 c 0,-0.3 -0.2,-0.5 -0.5,-0.5 l -0.3,0 0,-1.2 c 0,-0.3 -0.2,-0.5 -0.5,-0.5 -0.3,0 -0.5,0.2 -0.5,0.5 l 0,1.2 -0.9,0 0,-1.2 c 0,-0.3 -0.2,-0.5 -0.5,-0.5 -0.3,0 -0.5,0.2 -0.5,0.5 l 0,1.2 -0.3,0 c -0.3,0 -0.5,0.2 -0.5,0.5 l 0,2 c 0,0.9 0.8,1.7 1.7,1.7 l 0.2,0 c 0.2,1 1.1,1.8 2.2,1.8 1.3,0 2.3,-1 2.3,-2.3 l 0,-1.2 c 0,-0.6 0.5,-1.1 1.1,-1.1 0.3,0 0.5,-0.2 0.5,-0.5 0,-0.3 -0.4,-0.5 -0.7,-0.5 z"
       class="st1" /></g><g
     id="g3736"
     transform="matrix(2.9644737,0,0,2.9644737,-178.26447,-6.7594739)"><path
       style="fill:#929292"
       inkscape:connector-curvature="0"
       id="path3738"
       d="m 89.2,9.4 c -1.5,0 -2.7,1.1 -2.9,2.5 l -2.1,0 C 84,10.5 82.7,9.4 81.3,9.4 c -1.4,0 -2.7,1.1 -2.9,2.5 l -1.6,0 c -0.3,-3.9 -3.5,-7 -7.5,-7 -4.1,0 -7.5,3.4 -7.5,7.5 0,4.1 3.4,7.5 7.5,7.5 4,0 7.2,-3.1 7.5,-7 l 1.6,0 c 0.2,1.4 1.5,2.5 2.9,2.5 1.4,0 2.7,-1.1 2.9,-2.5 l 2.1,0 c 0.2,1.4 1.5,2.5 2.9,2.5 1.7,0 3,-1.3 3,-3 0,-1.7 -1.3,-3 -3,-3 z m -20,9.5 c -3.6,0 -6.5,-2.9 -6.5,-6.5 0,-3.6 2.9,-6.5 6.5,-6.5 3.6,0 6.5,2.9 6.5,6.5 0.1,3.6 -2.9,6.5 -6.5,6.5 z m 12,-4.5 c -1.1,0 -2,-0.9 -2,-2 0,-1.1 0.9,-2 2,-2 1.1,0 2,0.9 2,2 0,1.1 -0.8,2 -2,2 z m 8,0 c -1.1,0 -2,-0.9 -2,-2 0,-1.1 0.9,-2 2,-2 1.1,0 2,0.9 2,2 0,1.1 -0.8,2 -2,2 z"
       class="st1" /><path
       style="fill:#929292"
       inkscape:connector-curvature="0"
       id="path3740"
       d="m 72.3,9 -7,2.6 c -0.1,0 -0.3,0.2 -0.3,0.4 0,0.2 0.1,0.4 0.3,0.5 l 2.4,1.1 2.5,-2.5 c 0.2,-0.2 0.5,-0.2 0.7,0 0.2,0.2 0.2,0.5 0,0.7 l -2.5,2.5 1.1,2.4 c 0.1,0.2 0.3,0.3 0.5,0.3 0,0 0,0 0,0 0.2,0 0.4,-0.1 0.4,-0.3 L 73,9.6 C 73.1,9.4 73,9.2 72.9,9.1 72.7,8.9 72.5,8.9 72.3,9 Z"
       class="st1" /></g></svg>